<svg xmlns="http://www.w3.org/2000/svg" xmlns:xlink="http://www.w3.org/1999/xlink" width="1000" zoomAndPan="magnify" viewBox="0 0 750 374.999991" height="500" preserveAspectRatio="xMidYMid meet" version="1.0"><defs><g/><clipPath id="17901bef0c"><path d="M 81 6 L 582 6 L 582 336 L 81 336 Z M 81 6 " clip-rule="nonzero"/></clipPath><clipPath id="fc17b73019"><path d="M 119.214844 -33.527344 L 637.921875 93.355469 L 559.867188 412.449219 L 41.160156 285.566406 Z M 119.214844 -33.527344 " clip-rule="nonzero"/></clipPath><clipPath id="00a7aff4e5"><path d="M 119.214844 -33.527344 L 637.921875 93.355469 L 559.867188 412.449219 L 41.160156 285.566406 Z M 119.214844 -33.527344 " clip-rule="nonzero"/></clipPath><clipPath id="347086a7b3"><path d="M 119.160156 -33.308594 L 637.753906 93.546875 L 576.285156 344.835938 L 57.691406 217.980469 Z M 119.160156 -33.308594 " clip-rule="nonzero"/></clipPath><clipPath id="466ced2e56"><path d="M 244 29 L 301 29 L 301 48 L 244 48 Z M 244 29 " clip-rule="nonzero"/></clipPath><clipPath id="1b69e4036a"><path d="M 119.214844 -33.527344 L 637.921875 93.355469 L 559.867188 412.449219 L 41.160156 285.566406 Z M 119.214844 -33.527344 " clip-rule="nonzero"/></clipPath><clipPath id="177312cb0b"><path d="M 119.214844 -33.527344 L 637.921875 93.355469 L 559.867188 412.449219 L 41.160156 285.566406 Z M 119.214844 -33.527344 " clip-rule="nonzero"/></clipPath><clipPath id="40b8c6d708"><path d="M 157 260 L 534 260 L 534 371 L 157 371 Z M 157 260 " clip-rule="nonzero"/></clipPath><clipPath id="edbadc3879"><path d="M 119.214844 -33.527344 L 637.921875 93.355469 L 559.867188 412.449219 L 41.160156 285.566406 Z M 119.214844 -33.527344 " clip-rule="nonzero"/></clipPath><clipPath id="5aac9abc67"><path d="M 119.214844 -33.527344 L 637.921875 93.355469 L 559.867188 412.449219 L 41.160156 285.566406 Z M 119.214844 -33.527344 " clip-rule="nonzero"/></clipPath><clipPath id="8b438a828a"><path d="M 159.996094 246.421875 L 541.761719 339.804688 L 526.109375 403.804688 L 144.34375 310.417969 Z M 159.996094 246.421875 " clip-rule="nonzero"/></clipPath></defs><g clip-path="url(#17901bef0c)"><g clip-path="url(#fc17b73019)"><g clip-path="url(#00a7aff4e5)"><g clip-path="url(#347086a7b3)"><path fill="#435ebe" d="M 266.535156 76.671875 C 258.816406 107.921875 249.664062 143.835938 242.152344 170 C 276.019531 147.949219 318.207031 131.757812 316.828125 95.925781 C 314.902344 72.5 289.390625 70.097656 266.535156 76.671875 Z M 233.335938 182.289062 C 232.851562 182.664062 232.375 183.03125 231.902344 183.410156 C 220.179688 192.867188 218.835938 201.734375 219.773438 205.105469 C 220.832031 208.933594 223.972656 205.710938 225.835938 202.648438 C 227.574219 199.796875 230.183594 192.511719 233.335938 182.289062 Z M 165.597656 243.347656 C 27.324219 209.53125 84.222656 11.296875 161.867188 44.039062 C 181.523438 52.335938 200.222656 78.351562 192.996094 125.117188 C 211.347656 98.683594 237.984375 80.460938 262.394531 72.683594 C 268.679688 47.179688 274.304688 23.582031 277.921875 8.09375 C 278.675781 4.867188 283.515625 6.054688 282.773438 9.226562 C 282.613281 9.921875 276.257812 37.109375 267.902344 71.097656 C 293.601562 64.492188 319.683594 69.753906 321.804688 95.628906 C 323.382812 136.738281 274.054688 153.914062 239.972656 177.457031 C 235.835938 191.347656 232.351562 201.53125 230.089844 205.242188 C 219.042969 223.378906 202.085938 201.050781 228.785156 179.519531 C 231.003906 177.75 233.328125 176.03125 235.71875 174.34375 C 243.023438 149.5 252.496094 112.691406 260.972656 78.445312 C 233.214844 88.183594 206.007812 110.269531 190.050781 139.316406 C 188.65625 141.851562 184.757812 140.34375 185.441406 137.527344 C 198.109375 85.210938 179.617188 56.945312 159.921875 48.632812 C 102.800781 24.523438 58.160156 141.011719 108.507812 203.34375 C 170.054688 279.539062 310.230469 222.757812 469.933594 241.902344 C 565.328125 253.335938 590.5 307.246094 578.375 334.183594 C 577.019531 337.199219 572.480469 335.144531 573.828125 332.136719 C 585.113281 307.070312 558.925781 257.589844 469.34375 246.847656 C 349.632812 232.503906 239.167969 261.339844 165.597656 243.347656 " fill-opacity="1" fill-rule="nonzero"/></g></g></g></g><g clip-path="url(#466ced2e56)"><g clip-path="url(#1b69e4036a)"><g clip-path="url(#177312cb0b)"><path fill="#435ebe" d="M 297.832031 47.382812 L 246.457031 34.816406 C 243.261719 34.035156 244.4375 29.195312 247.640625 29.976562 L 299.015625 42.542969 C 302.21875 43.328125 301.042969 48.167969 297.832031 47.382812 " fill-opacity="1" fill-rule="nonzero"/></g></g></g><g clip-path="url(#40b8c6d708)"><g clip-path="url(#edbadc3879)"><g clip-path="url(#5aac9abc67)"><g clip-path="url(#8b438a828a)"><path fill="#435ebe" d="M 220.058594 328.941406 C 172.3125 317.261719 156.070312 287.234375 157.390625 262.503906 C 157.566406 259.21875 162.546875 259.476562 162.367188 262.773438 C 160.960938 289.078125 181.679688 321.933594 244.683594 327.960938 C 330.0625 336.128906 421.144531 300.304688 503.769531 333.671875 C 524.660156 342.117188 534.78125 354.191406 533.042969 368.589844 C 532.648438 371.867188 527.699219 371.265625 528.09375 367.992188 C 529.914062 352.933594 514.859375 343.527344 501.898438 338.296875 C 412.386719 302.128906 304.488281 349.59375 220.058594 328.941406 " fill-opacity="1" fill-rule="nonzero"/></g></g></g></g><g fill="#435ebe" fill-opacity="1"><g transform="translate(278.068219, 205.357211)"><g><path d="M 19.375 -17.515625 L 19 -17.21875 C 18.0625 -15.882812 16.875 -14.671875 15.4375 -13.578125 C 15.144531 -13.234375 14.660156 -12.773438 13.984375 -12.203125 C 13.316406 -11.640625 12.660156 -11.125 12.015625 -10.65625 C 11.378906 -10.1875 10.910156 -9.875 10.609375 -9.71875 L 8.765625 -8.828125 C 8.410156 -8.429688 8.179688 -7.828125 8.078125 -7.015625 C 7.984375 -6.203125 7.9375 -5.347656 7.9375 -4.453125 C 7.9375 -3.765625 7.960938 -3.082031 8.015625 -2.40625 C 8.066406 -1.738281 8.117188 -1.1875 8.171875 -0.75 C 8.210938 -0.351562 8.519531 -0.03125 9.09375 0.21875 C 9.664062 0.46875 10.269531 0.59375 10.90625 0.59375 C 11.65625 0.59375 12.695312 0.257812 14.03125 -0.40625 C 15.363281 -1.070312 16.820312 -2.035156 18.40625 -3.296875 C 19.988281 -4.566406 21.472656 -6.09375 22.859375 -7.875 C 22.960938 -8.113281 23.097656 -8.34375 23.265625 -8.5625 C 23.441406 -8.789062 23.582031 -9.003906 23.6875 -9.203125 C 23.925781 -9.597656 24.304688 -10.066406 24.828125 -10.609375 C 25.347656 -11.160156 25.78125 -11.753906 26.125 -12.390625 C 26.820312 -13.535156 27.503906 -14.640625 28.171875 -15.703125 C 28.835938 -16.765625 29.34375 -17.34375 29.6875 -17.4375 C 29.9375 -17.59375 30.160156 -17.671875 30.359375 -17.671875 L 30.734375 -17.8125 L 30.734375 -17.734375 C 30.828125 -17.785156 30.882812 -17.820312 30.90625 -17.84375 C 30.9375 -17.875 30.953125 -17.890625 30.953125 -17.890625 C 31.054688 -17.890625 31.128906 -17.71875 31.171875 -17.375 C 31.222656 -16.976562 31.085938 -16.53125 30.765625 -16.03125 C 30.441406 -15.539062 30.007812 -14.945312 29.46875 -14.25 C 29.269531 -13.851562 28.972656 -13.34375 28.578125 -12.71875 C 28.179688 -12.101562 27.757812 -11.523438 27.3125 -10.984375 L 26.953125 -10.390625 C 26.953125 -10.335938 26.898438 -10.210938 26.796875 -10.015625 L 26.578125 -9.359375 L 25.09375 -7.421875 C 24.644531 -6.828125 24.125 -6.21875 23.53125 -5.59375 C 22.9375 -4.976562 22.46875 -4.375 22.125 -3.78125 L 21.96875 -3.640625 C 21.476562 -2.992188 20.875 -2.300781 20.15625 -1.5625 C 19.4375 -0.820312 18.726562 -0.226562 18.03125 0.21875 L 15.734375 1.78125 C 14.796875 2.425781 13.90625 2.96875 13.0625 3.40625 C 12.21875 3.851562 11.226562 4.078125 10.09375 4.078125 C 9.101562 4.078125 8 3.96875 6.78125 3.75 C 5.570312 3.53125 4.550781 3.144531 3.71875 2.59375 L 3.640625 2.53125 C 2.992188 2.28125 2.285156 1.757812 1.515625 0.96875 C 0.753906 0.175781 0.25 -1.035156 0 -2.671875 L 0.078125 -2.671875 C -0.117188 -2.972656 -0.28125 -3.28125 -0.40625 -3.59375 C -0.53125 -3.914062 -0.59375 -4.226562 -0.59375 -4.53125 C -0.59375 -4.53125 -0.59375 -4.765625 -0.59375 -5.234375 C -0.59375 -5.703125 -0.566406 -6.207031 -0.515625 -6.75 C -0.515625 -7.300781 -0.503906 -7.796875 -0.484375 -8.234375 C -0.460938 -8.679688 -0.472656 -8.929688 -0.515625 -8.984375 C -0.515625 -9.773438 -0.460938 -10.566406 -0.359375 -11.359375 C -0.265625 -12.148438 -0.171875 -12.941406 -0.078125 -13.734375 C -0.078125 -13.878906 -0.0507812 -13.976562 0 -14.03125 C 0 -14.125 0.0078125 -14.21875 0.03125 -14.3125 C 0.0625 -14.414062 0.078125 -14.492188 0.078125 -14.546875 C 0.273438 -15.390625 0.535156 -16.191406 0.859375 -16.953125 C 1.179688 -17.722656 1.515625 -18.484375 1.859375 -19.234375 L 2.375 -20.640625 L 2.671875 -21.078125 C 3.066406 -21.671875 3.507812 -22.363281 4 -23.15625 C 4.5 -23.945312 4.921875 -24.46875 5.265625 -24.71875 L 6.234375 -25.765625 C 6.628906 -26.253906 7.050781 -26.734375 7.5 -27.203125 C 7.945312 -27.671875 8.390625 -28.082031 8.828125 -28.4375 C 9.078125 -28.675781 9.273438 -28.820312 9.421875 -28.875 L 9.421875 -28.796875 L 9.796875 -29.09375 C 10.140625 -29.394531 10.472656 -29.59375 10.796875 -29.6875 C 11.117188 -29.789062 11.40625 -29.84375 11.65625 -29.84375 C 11.75 -29.84375 11.859375 -29.828125 11.984375 -29.796875 C 12.109375 -29.773438 12.222656 -29.765625 12.328125 -29.765625 L 12.84375 -29.765625 C 13.039062 -29.765625 13.335938 -29.890625 13.734375 -30.140625 C 13.929688 -30.234375 14.128906 -30.316406 14.328125 -30.390625 C 14.523438 -30.472656 14.695312 -30.515625 14.84375 -30.515625 C 14.988281 -30.515625 15.085938 -30.488281 15.140625 -30.4375 C 15.335938 -30.53125 15.519531 -30.578125 15.6875 -30.578125 C 15.863281 -30.578125 16.03125 -30.578125 16.1875 -30.578125 C 16.382812 -30.578125 16.800781 -30.539062 17.4375 -30.46875 C 18.082031 -30.394531 18.789062 -30.195312 19.5625 -29.875 C 20.332031 -29.550781 21.035156 -29.039062 21.671875 -28.34375 C 22.316406 -27.65625 22.710938 -26.671875 22.859375 -25.390625 C 22.859375 -24.253906 22.613281 -23.164062 22.125 -22.125 C 22.070312 -21.925781 21.894531 -21.53125 21.59375 -20.9375 C 21.300781 -20.34375 20.941406 -19.722656 20.515625 -19.078125 C 20.097656 -18.429688 19.71875 -17.910156 19.375 -17.515625 Z M 15.515625 -21.453125 L 15.140625 -21.15625 C 15.085938 -21.101562 15.023438 -21.003906 14.953125 -20.859375 C 14.878906 -20.710938 14.816406 -20.566406 14.765625 -20.421875 C 14.765625 -20.367188 14.738281 -20.316406 14.6875 -20.265625 C 14.644531 -20.210938 14.625 -20.164062 14.625 -20.125 C 13.632812 -18.582031 12.78125 -17.09375 12.0625 -15.65625 C 11.34375 -14.226562 10.859375 -13.140625 10.609375 -12.390625 C 10.910156 -12.546875 11.207031 -12.742188 11.5 -12.984375 C 11.800781 -13.234375 12.078125 -13.457031 12.328125 -13.65625 L 13.953125 -15 C 15.441406 -16.425781 16.703125 -17.941406 17.734375 -19.546875 C 18.773438 -21.160156 19.320312 -22.640625 19.375 -23.984375 C 19.28125 -24.078125 19.171875 -24.1875 19.046875 -24.3125 C 18.921875 -24.4375 18.785156 -24.523438 18.640625 -24.578125 C 18.335938 -24.523438 17.875 -24.175781 17.25 -23.53125 C 16.632812 -22.882812 16.054688 -22.191406 15.515625 -21.453125 Z M 15.515625 -21.453125 "/></g></g></g><g fill="#435ebe" fill-opacity="1"><g transform="translate(304.258516, 205.357211)"><g><path d="M 0.671875 -9.203125 C 0.617188 -9.898438 0.71875 -10.679688 0.96875 -11.546875 C 1.21875 -12.410156 1.460938 -13.238281 1.703125 -14.03125 L 1.265625 -15.890625 L 2.75 -19.75 L 3.265625 -22.5625 C 3.460938 -23.707031 3.6875 -24.875 3.9375 -26.0625 C 4.1875 -27.25 4.445312 -28.285156 4.71875 -29.171875 C 4.988281 -30.066406 5.25 -30.585938 5.5 -30.734375 C 6.132812 -31.421875 6.738281 -32.007812 7.3125 -32.5 C 7.882812 -33 8.269531 -33.25 8.46875 -33.25 C 9.15625 -33.25 10.003906 -32.71875 11.015625 -31.65625 C 12.035156 -30.59375 12.644531 -28.972656 12.84375 -26.796875 C 12.9375 -26.054688 12.921875 -25.328125 12.796875 -24.609375 C 12.679688 -23.890625 12.570312 -23.234375 12.46875 -22.640625 C 12.414062 -22.347656 12.363281 -22.140625 12.3125 -22.015625 C 12.269531 -21.890625 12.25 -21.726562 12.25 -21.53125 L 13.359375 -22.796875 C 13.898438 -23.535156 14.59375 -24.375 15.4375 -25.3125 C 16.28125 -26.25 17.144531 -27.160156 18.03125 -28.046875 C 18.925781 -28.941406 19.753906 -29.6875 20.515625 -30.28125 C 21.285156 -30.875 21.894531 -31.171875 22.34375 -31.171875 C 23.082031 -31.171875 23.738281 -30.835938 24.3125 -30.171875 C 24.882812 -29.503906 25.367188 -28.6875 25.765625 -27.71875 C 26.160156 -26.757812 26.40625 -25.832031 26.5 -24.9375 C 26.5 -24.34375 26.425781 -23.703125 26.28125 -23.015625 L 27.6875 -24.421875 L 29.328125 -25.828125 L 29.25 -25.828125 L 29.6875 -26.203125 C 30.4375 -26.941406 31.21875 -27.71875 32.03125 -28.53125 C 32.84375 -29.351562 33.617188 -30.035156 34.359375 -30.578125 C 35.109375 -31.128906 35.707031 -31.40625 36.15625 -31.40625 C 37.039062 -31.40625 37.867188 -30.921875 38.640625 -29.953125 C 39.410156 -28.984375 39.867188 -27.859375 40.015625 -26.578125 C 40.015625 -26.378906 40 -26.09375 39.96875 -25.71875 C 39.945312 -25.351562 39.9375 -25.046875 39.9375 -24.796875 C 40.28125 -24.296875 40.476562 -23.828125 40.53125 -23.390625 C 40.476562 -22.742188 40.363281 -22.070312 40.1875 -21.375 C 40.019531 -20.6875 39.8125 -19.992188 39.5625 -19.296875 C 39.664062 -19.097656 39.71875 -18.910156 39.71875 -18.734375 C 39.71875 -18.566406 39.71875 -18.382812 39.71875 -18.1875 L 38.015625 -14.546875 L 38.078125 -14.546875 C 37.878906 -13.460938 37.671875 -12.375 37.453125 -11.28125 C 37.234375 -10.195312 37 -9.132812 36.75 -8.09375 C 36.75 -7.988281 36.757812 -7.863281 36.78125 -7.71875 C 36.800781 -7.570312 36.8125 -7.445312 36.8125 -7.34375 C 36.519531 -6.65625 36.285156 -6.050781 36.109375 -5.53125 C 35.941406 -5.007812 35.859375 -4.601562 35.859375 -4.3125 C 35.859375 -4.207031 35.90625 -4.109375 36 -4.015625 C 36.695312 -4.253906 37.550781 -4.867188 38.5625 -5.859375 C 39.582031 -6.847656 40.632812 -8 41.71875 -9.3125 C 42.8125 -10.625 43.800781 -11.921875 44.6875 -13.203125 C 45.582031 -14.492188 46.226562 -15.5625 46.625 -16.40625 C 47.457031 -17.84375 48.304688 -19.21875 49.171875 -20.53125 C 50.046875 -21.84375 50.726562 -22.5 51.21875 -22.5 C 51.757812 -22.5 52.03125 -22.222656 52.03125 -21.671875 C 52.132812 -21.328125 52.0625 -20.957031 51.8125 -20.5625 L 50.921875 -19.078125 L 50.921875 -19.15625 C 50.273438 -17.914062 49.484375 -16.515625 48.546875 -14.953125 C 47.609375 -13.398438 46.617188 -11.878906 45.578125 -10.390625 L 44.609375 -9.0625 C 43.722656 -7.769531 42.785156 -6.503906 41.796875 -5.265625 C 40.804688 -4.035156 39.71875 -3.007812 38.53125 -2.1875 C 37.34375 -1.375 35.976562 -0.96875 34.4375 -0.96875 C 34.238281 -0.96875 34.066406 -0.976562 33.921875 -1 C 33.773438 -1.03125 33.601562 -1.066406 33.40625 -1.109375 L 33.328125 -1.109375 C 32.285156 -1.304688 31.378906 -1.9375 30.609375 -3 C 29.847656 -4.070312 29.34375 -5.421875 29.09375 -7.046875 C 28.851562 -7.441406 28.679688 -7.914062 28.578125 -8.46875 C 28.523438 -9.40625 28.671875 -10.640625 29.015625 -12.171875 C 29.367188 -13.703125 29.769531 -15.140625 30.21875 -16.484375 C 30.164062 -17.421875 30.285156 -18.429688 30.578125 -19.515625 C 30.878906 -20.609375 31.265625 -21.675781 31.734375 -22.71875 C 32.203125 -23.757812 32.609375 -24.648438 32.953125 -25.390625 C 33.054688 -25.640625 33.171875 -25.847656 33.296875 -26.015625 C 33.421875 -26.191406 33.503906 -26.351562 33.546875 -26.5 C 32.953125 -26.25 32.160156 -25.675781 31.171875 -24.78125 C 30.179688 -23.894531 29.164062 -22.832031 28.125 -21.59375 C 27.09375 -20.363281 26.179688 -19.078125 25.390625 -17.734375 C 25.441406 -17.535156 25.503906 -17.363281 25.578125 -17.21875 C 25.648438 -17.070312 25.710938 -16.925781 25.765625 -16.78125 C 25.859375 -16.476562 25.96875 -16.203125 26.09375 -15.953125 C 26.21875 -15.710938 26.28125 -15.46875 26.28125 -15.21875 C 26.28125 -15.164062 26.265625 -14.90625 26.234375 -14.4375 C 26.210938 -13.96875 26.15625 -13.410156 26.0625 -12.765625 C 25.90625 -11.679688 25.765625 -10.492188 25.640625 -9.203125 C 25.523438 -7.921875 25.488281 -7.179688 25.53125 -6.984375 C 25.132812 -6.484375 24.8125 -5.898438 24.5625 -5.234375 C 24.320312 -4.566406 23.953125 -3.863281 23.453125 -3.125 C 22.960938 -3.164062 22.359375 -3.257812 21.640625 -3.40625 C 20.921875 -3.5625 20.21875 -3.8125 19.53125 -4.15625 C 19.476562 -4.15625 19.453125 -4.128906 19.453125 -4.078125 C 19.453125 -4.035156 19.378906 -4.015625 19.234375 -4.015625 C 18.835938 -4.015625 18.21875 -4.53125 17.375 -5.5625 C 16.53125 -6.601562 16.054688 -7.867188 15.953125 -9.359375 C 15.859375 -10.441406 15.957031 -11.703125 16.25 -13.140625 C 16.550781 -14.578125 16.925781 -15.988281 17.375 -17.375 L 17.21875 -17.671875 L 17.21875 -17.8125 C 17.21875 -18.113281 17.34375 -18.570312 17.59375 -19.1875 C 17.84375 -19.8125 18.066406 -20.367188 18.265625 -20.859375 C 18.265625 -20.960938 18.3125 -21.113281 18.40625 -21.3125 C 18.507812 -21.507812 18.585938 -21.679688 18.640625 -21.828125 L 18.40625 -22.71875 L 19.15625 -24.34375 C 19.40625 -24.894531 19.613281 -25.34375 19.78125 -25.6875 C 19.957031 -26.03125 20.070312 -26.300781 20.125 -26.5 C 19.726562 -26.25 19.171875 -25.726562 18.453125 -24.9375 C 17.734375 -24.144531 16.953125 -23.226562 16.109375 -22.1875 C 15.265625 -21.15625 14.472656 -20.09375 13.734375 -19 L 13.734375 -19.078125 L 11.4375 -13.65625 L 9.65625 -8.015625 L 9.65625 -7.640625 C 9.65625 -7.398438 9.675781 -7.226562 9.71875 -7.125 L 9.0625 -5.421875 C 8.707031 -4.484375 8.304688 -3.65625 7.859375 -2.9375 C 7.421875 -2.21875 6.554688 -1.785156 5.265625 -1.640625 L 3.9375 -0.15625 C 3.789062 -0.15625 3.46875 -0.425781 2.96875 -0.96875 C 2.476562 -1.507812 1.984375 -2.257812 1.484375 -3.21875 C 0.992188 -4.1875 0.671875 -5.289062 0.515625 -6.53125 C 0.472656 -6.875 0.488281 -7.179688 0.5625 -7.453125 C 0.632812 -7.734375 0.695312 -8.046875 0.75 -8.390625 C 0.75 -8.484375 0.757812 -8.578125 0.78125 -8.671875 C 0.800781 -8.773438 0.8125 -8.851562 0.8125 -8.90625 C 0.71875 -8.957031 0.671875 -9.054688 0.671875 -9.203125 Z M 0.671875 -9.203125 "/></g></g></g><g fill="#435ebe" fill-opacity="1"><g transform="translate(348.700414, 205.357211)"><g><path d="M 19.375 -17.515625 L 19 -17.21875 C 18.0625 -15.882812 16.875 -14.671875 15.4375 -13.578125 C 15.144531 -13.234375 14.660156 -12.773438 13.984375 -12.203125 C 13.316406 -11.640625 12.660156 -11.125 12.015625 -10.65625 C 11.378906 -10.1875 10.910156 -9.875 10.609375 -9.71875 L 8.765625 -8.828125 C 8.410156 -8.429688 8.179688 -7.828125 8.078125 -7.015625 C 7.984375 -6.203125 7.9375 -5.347656 7.9375 -4.453125 C 7.9375 -3.765625 7.960938 -3.082031 8.015625 -2.40625 C 8.066406 -1.738281 8.117188 -1.1875 8.171875 -0.75 C 8.210938 -0.351562 8.519531 -0.03125 9.09375 0.21875 C 9.664062 0.46875 10.269531 0.59375 10.90625 0.59375 C 11.65625 0.59375 12.695312 0.257812 14.03125 -0.40625 C 15.363281 -1.070312 16.820312 -2.035156 18.40625 -3.296875 C 19.988281 -4.566406 21.472656 -6.09375 22.859375 -7.875 C 22.960938 -8.113281 23.097656 -8.34375 23.265625 -8.5625 C 23.441406 -8.789062 23.582031 -9.003906 23.6875 -9.203125 C 23.925781 -9.597656 24.304688 -10.066406 24.828125 -10.609375 C 25.347656 -11.160156 25.78125 -11.753906 26.125 -12.390625 C 26.820312 -13.535156 27.503906 -14.640625 28.171875 -15.703125 C 28.835938 -16.765625 29.34375 -17.34375 29.6875 -17.4375 C 29.9375 -17.59375 30.160156 -17.671875 30.359375 -17.671875 L 30.734375 -17.8125 L 30.734375 -17.734375 C 30.828125 -17.785156 30.882812 -17.820312 30.90625 -17.84375 C 30.9375 -17.875 30.953125 -17.890625 30.953125 -17.890625 C 31.054688 -17.890625 31.128906 -17.71875 31.171875 -17.375 C 31.222656 -16.976562 31.085938 -16.53125 30.765625 -16.03125 C 30.441406 -15.539062 30.007812 -14.945312 29.46875 -14.25 C 29.269531 -13.851562 28.972656 -13.34375 28.578125 -12.71875 C 28.179688 -12.101562 27.757812 -11.523438 27.3125 -10.984375 L 26.953125 -10.390625 C 26.953125 -10.335938 26.898438 -10.210938 26.796875 -10.015625 L 26.578125 -9.359375 L 25.09375 -7.421875 C 24.644531 -6.828125 24.125 -6.21875 23.53125 -5.59375 C 22.9375 -4.976562 22.46875 -4.375 22.125 -3.78125 L 21.96875 -3.640625 C 21.476562 -2.992188 20.875 -2.300781 20.15625 -1.5625 C 19.4375 -0.820312 18.726562 -0.226562 18.03125 0.21875 L 15.734375 1.78125 C 14.796875 2.425781 13.90625 2.96875 13.0625 3.40625 C 12.21875 3.851562 11.226562 4.078125 10.09375 4.078125 C 9.101562 4.078125 8 3.96875 6.78125 3.75 C 5.570312 3.53125 4.550781 3.144531 3.71875 2.59375 L 3.640625 2.53125 C 2.992188 2.28125 2.285156 1.757812 1.515625 0.96875 C 0.753906 0.175781 0.25 -1.035156 0 -2.671875 L 0.078125 -2.671875 C -0.117188 -2.972656 -0.28125 -3.28125 -0.40625 -3.59375 C -0.53125 -3.914062 -0.59375 -4.226562 -0.59375 -4.53125 C -0.59375 -4.53125 -0.59375 -4.765625 -0.59375 -5.234375 C -0.59375 -5.703125 -0.566406 -6.207031 -0.515625 -6.75 C -0.515625 -7.300781 -0.503906 -7.796875 -0.484375 -8.234375 C -0.460938 -8.679688 -0.472656 -8.929688 -0.515625 -8.984375 C -0.515625 -9.773438 -0.460938 -10.566406 -0.359375 -11.359375 C -0.265625 -12.148438 -0.171875 -12.941406 -0.078125 -13.734375 C -0.078125 -13.878906 -0.0507812 -13.976562 0 -14.03125 C 0 -14.125 0.0078125 -14.21875 0.03125 -14.3125 C 0.0625 -14.414062 0.078125 -14.492188 0.078125 -14.546875 C 0.273438 -15.390625 0.535156 -16.191406 0.859375 -16.953125 C 1.179688 -17.722656 1.515625 -18.484375 1.859375 -19.234375 L 2.375 -20.640625 L 2.671875 -21.078125 C 3.066406 -21.671875 3.507812 -22.363281 4 -23.15625 C 4.5 -23.945312 4.921875 -24.46875 5.265625 -24.71875 L 6.234375 -25.765625 C 6.628906 -26.253906 7.050781 -26.734375 7.5 -27.203125 C 7.945312 -27.671875 8.390625 -28.082031 8.828125 -28.4375 C 9.078125 -28.675781 9.273438 -28.820312 9.421875 -28.875 L 9.421875 -28.796875 L 9.796875 -29.09375 C 10.140625 -29.394531 10.472656 -29.59375 10.796875 -29.6875 C 11.117188 -29.789062 11.40625 -29.84375 11.65625 -29.84375 C 11.75 -29.84375 11.859375 -29.828125 11.984375 -29.796875 C 12.109375 -29.773438 12.222656 -29.765625 12.328125 -29.765625 L 12.84375 -29.765625 C 13.039062 -29.765625 13.335938 -29.890625 13.734375 -30.140625 C 13.929688 -30.234375 14.128906 -30.316406 14.328125 -30.390625 C 14.523438 -30.472656 14.695312 -30.515625 14.84375 -30.515625 C 14.988281 -30.515625 15.085938 -30.488281 15.140625 -30.4375 C 15.335938 -30.53125 15.519531 -30.578125 15.6875 -30.578125 C 15.863281 -30.578125 16.03125 -30.578125 16.1875 -30.578125 C 16.382812 -30.578125 16.800781 -30.539062 17.4375 -30.46875 C 18.082031 -30.394531 18.789062 -30.195312 19.5625 -29.875 C 20.332031 -29.550781 21.035156 -29.039062 21.671875 -28.34375 C 22.316406 -27.65625 22.710938 -26.671875 22.859375 -25.390625 C 22.859375 -24.253906 22.613281 -23.164062 22.125 -22.125 C 22.070312 -21.925781 21.894531 -21.53125 21.59375 -20.9375 C 21.300781 -20.34375 20.941406 -19.722656 20.515625 -19.078125 C 20.097656 -18.429688 19.71875 -17.910156 19.375 -17.515625 Z M 15.515625 -21.453125 L 15.140625 -21.15625 C 15.085938 -21.101562 15.023438 -21.003906 14.953125 -20.859375 C 14.878906 -20.710938 14.816406 -20.566406 14.765625 -20.421875 C 14.765625 -20.367188 14.738281 -20.316406 14.6875 -20.265625 C 14.644531 -20.210938 14.625 -20.164062 14.625 -20.125 C 13.632812 -18.582031 12.78125 -17.09375 12.0625 -15.65625 C 11.34375 -14.226562 10.859375 -13.140625 10.609375 -12.390625 C 10.910156 -12.546875 11.207031 -12.742188 11.5 -12.984375 C 11.800781 -13.234375 12.078125 -13.457031 12.328125 -13.65625 L 13.953125 -15 C 15.441406 -16.425781 16.703125 -17.941406 17.734375 -19.546875 C 18.773438 -21.160156 19.320312 -22.640625 19.375 -23.984375 C 19.28125 -24.078125 19.171875 -24.1875 19.046875 -24.3125 C 18.921875 -24.4375 18.785156 -24.523438 18.640625 -24.578125 C 18.335938 -24.523438 17.875 -24.175781 17.25 -23.53125 C 16.632812 -22.882812 16.054688 -22.191406 15.515625 -21.453125 Z M 15.515625 -21.453125 "/></g></g></g><g fill="#435ebe" fill-opacity="1"><g transform="translate(374.890711, 205.357211)"><g><path d="M 20.34375 -47.4375 L 20.34375 -47.21875 C 20.039062 -45.925781 19.703125 -44.570312 19.328125 -43.15625 C 18.960938 -41.75 18.53125 -40.234375 18.03125 -38.609375 L 23.984375 -38.3125 C 24.222656 -38.3125 24.421875 -38.332031 24.578125 -38.375 L 25.390625 -38.375 C 29.492188 -37.976562 32.484375 -37.097656 34.359375 -35.734375 C 36.242188 -34.378906 37.265625 -33.15625 37.421875 -32.0625 C 37.515625 -31.71875 37.460938 -31.484375 37.265625 -31.359375 C 37.066406 -31.234375 36.84375 -31.171875 36.59375 -31.171875 C 36.539062 -31.171875 36.488281 -31.171875 36.4375 -31.171875 C 36.394531 -31.171875 36.320312 -31.171875 36.21875 -31.171875 L 35.5625 -31.171875 C 35.457031 -31.765625 34.875 -32.332031 33.8125 -32.875 C 32.75 -33.425781 31.410156 -33.910156 29.796875 -34.328125 C 28.191406 -34.753906 26.472656 -35.066406 24.640625 -35.265625 C 24.347656 -35.265625 24.128906 -35.285156 23.984375 -35.328125 L 23.609375 -35.328125 L 17.21875 -35.625 C 17.125 -34.988281 17.023438 -34.359375 16.921875 -33.734375 C 16.828125 -33.117188 16.726562 -32.488281 16.625 -31.84375 C 16.476562 -30.90625 16.289062 -29.890625 16.0625 -28.796875 C 15.84375 -27.710938 15.585938 -26.722656 15.296875 -25.828125 L 15.4375 -24.125 L 13.4375 -18.109375 C 12.59375 -15.679688 11.859375 -13.414062 11.234375 -11.3125 C 10.617188 -9.21875 10.390625 -7.523438 10.546875 -6.234375 C 10.546875 -5.691406 10.664062 -5.296875 10.90625 -5.046875 C 11.351562 -5.242188 11.957031 -5.6875 12.71875 -6.375 C 13.488281 -7.070312 14.304688 -7.878906 15.171875 -8.796875 C 16.046875 -9.710938 16.828125 -10.59375 17.515625 -11.4375 C 17.710938 -11.675781 17.9375 -11.929688 18.1875 -12.203125 C 18.4375 -12.484375 18.660156 -12.742188 18.859375 -12.984375 C 19.453125 -13.734375 20.046875 -14.503906 20.640625 -15.296875 C 21.234375 -16.085938 21.703125 -16.851562 22.046875 -17.59375 L 22.421875 -18.328125 L 22.421875 -18.265625 C 22.710938 -18.859375 23.144531 -19.671875 23.71875 -20.703125 C 24.289062 -21.742188 24.847656 -22.695312 25.390625 -23.5625 C 25.929688 -24.4375 26.328125 -24.875 26.578125 -24.875 C 27.023438 -24.875 27.25 -24.648438 27.25 -24.203125 C 27.289062 -24.054688 27.265625 -23.832031 27.171875 -23.53125 L 27.171875 -23.609375 L 27.09375 -23.53125 C 27.195312 -23.382812 27.25 -23.1875 27.25 -22.9375 C 27.09375 -21.945312 26.359375 -20.285156 25.046875 -17.953125 C 23.742188 -15.628906 21.976562 -13.082031 19.75 -10.3125 L 17.078125 -6.984375 C 15.835938 -5.597656 14.546875 -4.332031 13.203125 -3.1875 C 11.867188 -2.050781 10.707031 -1.484375 9.71875 -1.484375 C 8.632812 -1.484375 7.796875 -1.726562 7.203125 -2.21875 C 6.609375 -2.71875 6.140625 -3.335938 5.796875 -4.078125 C 5.046875 -4.773438 4.210938 -5.601562 3.296875 -6.5625 C 2.390625 -7.53125 1.882812 -8.410156 1.78125 -9.203125 C 1.726562 -10.535156 1.945312 -12.378906 2.4375 -14.734375 C 2.9375 -17.085938 3.660156 -19.523438 4.609375 -22.046875 C 4.609375 -22.148438 4.59375 -22.257812 4.5625 -22.375 C 4.539062 -22.5 4.53125 -22.613281 4.53125 -22.71875 L 4.828125 -23.984375 C 4.921875 -24.472656 5.03125 -24.960938 5.15625 -25.453125 C 5.28125 -25.953125 5.414062 -26.375 5.5625 -26.71875 L 5.5625 -26.65625 C 5.863281 -27.644531 6.097656 -28.65625 6.265625 -29.6875 C 6.441406 -30.726562 6.628906 -31.742188 6.828125 -32.734375 C 6.929688 -33.273438 7.019531 -33.804688 7.09375 -34.328125 C 7.164062 -34.847656 7.25 -35.378906 7.34375 -35.921875 L 3.265625 -36.375 C 0.0976562 -36.71875 -2.671875 -37.332031 -5.046875 -38.21875 C -7.421875 -39.113281 -8.734375 -40.15625 -8.984375 -41.34375 C -8.984375 -41.738281 -8.8125 -41.9375 -8.46875 -41.9375 C -8.363281 -42.039062 -8.265625 -42.09375 -8.171875 -42.09375 C -8.015625 -42.09375 -7.835938 -41.992188 -7.640625 -41.796875 L -6.609375 -41.9375 C -5.472656 -41.5 -4.085938 -41.082031 -2.453125 -40.6875 C -0.816406 -40.289062 1.0625 -39.992188 3.1875 -39.796875 L 5.796875 -39.640625 C 6.191406 -39.640625 6.625 -39.625 7.09375 -39.59375 C 7.5625 -39.570312 7.992188 -39.539062 8.390625 -39.5 L 10.171875 -44.3125 L 10.171875 -44.25 C 10.316406 -44.882812 10.488281 -45.398438 10.6875 -45.796875 C 10.789062 -46.046875 10.890625 -46.316406 10.984375 -46.609375 C 11.085938 -46.910156 11.160156 -47.160156 11.203125 -47.359375 C 11.359375 -48.203125 11.484375 -49.066406 11.578125 -49.953125 C 11.679688 -50.847656 11.753906 -51.691406 11.796875 -52.484375 C 11.953125 -54.015625 12.140625 -55.335938 12.359375 -56.453125 C 12.578125 -57.566406 12.984375 -58.125 13.578125 -58.125 C 14.023438 -58.125 14.65625 -57.890625 15.46875 -57.421875 C 16.289062 -56.953125 17.0625 -56.28125 17.78125 -55.40625 C 18.5 -54.539062 18.929688 -53.46875 19.078125 -52.1875 L 19.078125 -50.921875 L 19.53125 -49.515625 C 19.625 -49.117188 19.734375 -48.707031 19.859375 -48.28125 C 19.984375 -47.863281 20.144531 -47.582031 20.34375 -47.4375 Z M 20.34375 -47.4375 "/></g></g></g><g fill="#435ebe" fill-opacity="1"><g transform="translate(393.81004, 205.357211)"><g><path d="M 19.375 -17.515625 L 19 -17.21875 C 18.0625 -15.882812 16.875 -14.671875 15.4375 -13.578125 C 15.144531 -13.234375 14.660156 -12.773438 13.984375 -12.203125 C 13.316406 -11.640625 12.660156 -11.125 12.015625 -10.65625 C 11.378906 -10.1875 10.910156 -9.875 10.609375 -9.71875 L 8.765625 -8.828125 C 8.410156 -8.429688 8.179688 -7.828125 8.078125 -7.015625 C 7.984375 -6.203125 7.9375 -5.347656 7.9375 -4.453125 C 7.9375 -3.765625 7.960938 -3.082031 8.015625 -2.40625 C 8.066406 -1.738281 8.117188 -1.1875 8.171875 -0.75 C 8.210938 -0.351562 8.519531 -0.03125 9.09375 0.21875 C 9.664062 0.46875 10.269531 0.59375 10.90625 0.59375 C 11.65625 0.59375 12.695312 0.257812 14.03125 -0.40625 C 15.363281 -1.070312 16.820312 -2.035156 18.40625 -3.296875 C 19.988281 -4.566406 21.472656 -6.09375 22.859375 -7.875 C 22.960938 -8.113281 23.097656 -8.34375 23.265625 -8.5625 C 23.441406 -8.789062 23.582031 -9.003906 23.6875 -9.203125 C 23.925781 -9.597656 24.304688 -10.066406 24.828125 -10.609375 C 25.347656 -11.160156 25.78125 -11.753906 26.125 -12.390625 C 26.820312 -13.535156 27.503906 -14.640625 28.171875 -15.703125 C 28.835938 -16.765625 29.34375 -17.34375 29.6875 -17.4375 C 29.9375 -17.59375 30.160156 -17.671875 30.359375 -17.671875 L 30.734375 -17.8125 L 30.734375 -17.734375 C 30.828125 -17.785156 30.882812 -17.820312 30.90625 -17.84375 C 30.9375 -17.875 30.953125 -17.890625 30.953125 -17.890625 C 31.054688 -17.890625 31.128906 -17.71875 31.171875 -17.375 C 31.222656 -16.976562 31.085938 -16.53125 30.765625 -16.03125 C 30.441406 -15.539062 30.007812 -14.945312 29.46875 -14.25 C 29.269531 -13.851562 28.972656 -13.34375 28.578125 -12.71875 C 28.179688 -12.101562 27.757812 -11.523438 27.3125 -10.984375 L 26.953125 -10.390625 C 26.953125 -10.335938 26.898438 -10.210938 26.796875 -10.015625 L 26.578125 -9.359375 L 25.09375 -7.421875 C 24.644531 -6.828125 24.125 -6.21875 23.53125 -5.59375 C 22.9375 -4.976562 22.46875 -4.375 22.125 -3.78125 L 21.96875 -3.640625 C 21.476562 -2.992188 20.875 -2.300781 20.15625 -1.5625 C 19.4375 -0.820312 18.726562 -0.226562 18.03125 0.21875 L 15.734375 1.78125 C 14.796875 2.425781 13.90625 2.96875 13.0625 3.40625 C 12.21875 3.851562 11.226562 4.078125 10.09375 4.078125 C 9.101562 4.078125 8 3.96875 6.78125 3.75 C 5.570312 3.53125 4.550781 3.144531 3.71875 2.59375 L 3.640625 2.53125 C 2.992188 2.28125 2.285156 1.757812 1.515625 0.96875 C 0.753906 0.175781 0.25 -1.035156 0 -2.671875 L 0.078125 -2.671875 C -0.117188 -2.972656 -0.28125 -3.28125 -0.40625 -3.59375 C -0.53125 -3.914062 -0.59375 -4.226562 -0.59375 -4.53125 C -0.59375 -4.53125 -0.59375 -4.765625 -0.59375 -5.234375 C -0.59375 -5.703125 -0.566406 -6.207031 -0.515625 -6.75 C -0.515625 -7.300781 -0.503906 -7.796875 -0.484375 -8.234375 C -0.460938 -8.679688 -0.472656 -8.929688 -0.515625 -8.984375 C -0.515625 -9.773438 -0.460938 -10.566406 -0.359375 -11.359375 C -0.265625 -12.148438 -0.171875 -12.941406 -0.078125 -13.734375 C -0.078125 -13.878906 -0.0507812 -13.976562 0 -14.03125 C 0 -14.125 0.0078125 -14.21875 0.03125 -14.3125 C 0.0625 -14.414062 0.078125 -14.492188 0.078125 -14.546875 C 0.273438 -15.390625 0.535156 -16.191406 0.859375 -16.953125 C 1.179688 -17.722656 1.515625 -18.484375 1.859375 -19.234375 L 2.375 -20.640625 L 2.671875 -21.078125 C 3.066406 -21.671875 3.507812 -22.363281 4 -23.15625 C 4.5 -23.945312 4.921875 -24.46875 5.265625 -24.71875 L 6.234375 -25.765625 C 6.628906 -26.253906 7.050781 -26.734375 7.5 -27.203125 C 7.945312 -27.671875 8.390625 -28.082031 8.828125 -28.4375 C 9.078125 -28.675781 9.273438 -28.820312 9.421875 -28.875 L 9.421875 -28.796875 L 9.796875 -29.09375 C 10.140625 -29.394531 10.472656 -29.59375 10.796875 -29.6875 C 11.117188 -29.789062 11.40625 -29.84375 11.65625 -29.84375 C 11.75 -29.84375 11.859375 -29.828125 11.984375 -29.796875 C 12.109375 -29.773438 12.222656 -29.765625 12.328125 -29.765625 L 12.84375 -29.765625 C 13.039062 -29.765625 13.335938 -29.890625 13.734375 -30.140625 C 13.929688 -30.234375 14.128906 -30.316406 14.328125 -30.390625 C 14.523438 -30.472656 14.695312 -30.515625 14.84375 -30.515625 C 14.988281 -30.515625 15.085938 -30.488281 15.140625 -30.4375 C 15.335938 -30.53125 15.519531 -30.578125 15.6875 -30.578125 C 15.863281 -30.578125 16.03125 -30.578125 16.1875 -30.578125 C 16.382812 -30.578125 16.800781 -30.539062 17.4375 -30.46875 C 18.082031 -30.394531 18.789062 -30.195312 19.5625 -29.875 C 20.332031 -29.550781 21.035156 -29.039062 21.671875 -28.34375 C 22.316406 -27.65625 22.710938 -26.671875 22.859375 -25.390625 C 22.859375 -24.253906 22.613281 -23.164062 22.125 -22.125 C 22.070312 -21.925781 21.894531 -21.53125 21.59375 -20.9375 C 21.300781 -20.34375 20.941406 -19.722656 20.515625 -19.078125 C 20.097656 -18.429688 19.71875 -17.910156 19.375 -17.515625 Z M 15.515625 -21.453125 L 15.140625 -21.15625 C 15.085938 -21.101562 15.023438 -21.003906 14.953125 -20.859375 C 14.878906 -20.710938 14.816406 -20.566406 14.765625 -20.421875 C 14.765625 -20.367188 14.738281 -20.316406 14.6875 -20.265625 C 14.644531 -20.210938 14.625 -20.164062 14.625 -20.125 C 13.632812 -18.582031 12.78125 -17.09375 12.0625 -15.65625 C 11.34375 -14.226562 10.859375 -13.140625 10.609375 -12.390625 C 10.910156 -12.546875 11.207031 -12.742188 11.5 -12.984375 C 11.800781 -13.234375 12.078125 -13.457031 12.328125 -13.65625 L 13.953125 -15 C 15.441406 -16.425781 16.703125 -17.941406 17.734375 -19.546875 C 18.773438 -21.160156 19.320312 -22.640625 19.375 -23.984375 C 19.28125 -24.078125 19.171875 -24.1875 19.046875 -24.3125 C 18.921875 -24.4375 18.785156 -24.523438 18.640625 -24.578125 C 18.335938 -24.523438 17.875 -24.175781 17.25 -23.53125 C 16.632812 -22.882812 16.054688 -22.191406 15.515625 -21.453125 Z M 15.515625 -21.453125 "/></g></g></g><g fill="#435ebe" fill-opacity="1"><g transform="translate(420.000337, 205.357211)"><g><path d="M 7.125 -21.015625 L 7.125 -21.078125 L 6.015625 -18.78125 C 5.910156 -18.476562 5.660156 -18.019531 5.265625 -17.40625 C 4.867188 -16.789062 4.445312 -16.144531 4 -15.46875 C 3.5625 -14.800781 3.144531 -14.21875 2.75 -13.71875 C 2.351562 -13.226562 2.101562 -12.984375 2 -12.984375 C 1.800781 -12.984375 1.648438 -13.117188 1.546875 -13.390625 C 1.453125 -13.671875 1.359375 -14.15625 1.265625 -14.84375 C 1.265625 -14.894531 1.460938 -15.28125 1.859375 -16 C 2.253906 -16.71875 2.6875 -17.484375 3.15625 -18.296875 C 3.625 -19.117188 3.957031 -19.703125 4.15625 -20.046875 C 4.695312 -21.035156 5.238281 -22.125 5.78125 -23.3125 C 6.332031 -24.5 6.582031 -25.335938 6.53125 -25.828125 C 6.53125 -25.984375 6.359375 -26.304688 6.015625 -26.796875 C 5.671875 -27.296875 5.300781 -27.789062 4.90625 -28.28125 C 4.507812 -28.820312 4.132812 -29.351562 3.78125 -29.875 C 3.4375 -30.394531 3.265625 -30.753906 3.265625 -30.953125 L 3.1875 -31.328125 C 2.988281 -31.617188 2.890625 -31.914062 2.890625 -32.21875 C 2.847656 -33.5 2.984375 -34.867188 3.296875 -36.328125 C 3.617188 -37.796875 4.113281 -39.1875 4.78125 -40.5 C 5.457031 -41.8125 6.289062 -42.882812 7.28125 -43.71875 C 8.269531 -44.5625 9.378906 -44.984375 10.609375 -44.984375 C 11.648438 -44.984375 12.566406 -44.671875 13.359375 -44.046875 C 14.148438 -43.429688 14.597656 -42.554688 14.703125 -41.421875 C 14.796875 -40.234375 14.628906 -38.894531 14.203125 -37.40625 C 13.785156 -35.925781 13.269531 -34.46875 12.65625 -33.03125 C 12.039062 -31.59375 11.457031 -30.332031 10.90625 -29.25 C 10.664062 -28.707031 10.484375 -28.320312 10.359375 -28.09375 C 10.234375 -27.875 10.117188 -27.640625 10.015625 -27.390625 C 10.015625 -27.390625 10.023438 -27.398438 10.046875 -27.421875 C 10.078125 -27.453125 10.117188 -27.46875 10.171875 -27.46875 C 10.265625 -27.46875 10.375 -27.378906 10.5 -27.203125 C 10.625 -27.035156 10.8125 -26.953125 11.0625 -26.953125 C 11.0625 -26.953125 11.070312 -26.953125 11.09375 -26.953125 C 11.125 -26.953125 11.160156 -26.953125 11.203125 -26.953125 L 11.5 -26.359375 L 11.5 -26.421875 C 11.550781 -26.378906 11.578125 -26.34375 11.578125 -26.3125 C 11.578125 -26.289062 11.578125 -26.28125 11.578125 -26.28125 C 11.878906 -26.28125 12.203125 -26.351562 12.546875 -26.5 L 12.46875 -26.5 L 15.4375 -28.28125 C 16.570312 -28.976562 17.523438 -29.484375 18.296875 -29.796875 C 19.066406 -30.117188 19.550781 -30.304688 19.75 -30.359375 C 20.09375 -30.359375 20.707031 -30.0625 21.59375 -29.46875 C 22.488281 -28.875 23.332031 -28.144531 24.125 -27.28125 C 24.914062 -26.414062 25.335938 -25.535156 25.390625 -24.640625 C 25.441406 -24.203125 25.304688 -23.632812 24.984375 -22.9375 C 24.660156 -22.25 24.226562 -21.410156 23.6875 -20.421875 C 23.1875 -19.472656 22.640625 -18.390625 22.046875 -17.171875 C 21.453125 -15.960938 20.882812 -14.566406 20.34375 -12.984375 L 18.78125 -9.421875 C 18.332031 -7.796875 18.109375 -6.191406 18.109375 -4.609375 L 18.109375 -3.484375 L 18.265625 -2 C 18.265625 -1.757812 18.238281 -1.613281 18.1875 -1.5625 L 18.265625 -0.890625 C 18.410156 0.203125 18.617188 1.34375 18.890625 2.53125 C 19.160156 3.71875 19.617188 4.3125 20.265625 4.3125 C 20.460938 4.3125 20.757812 4.1875 21.15625 3.9375 C 21.257812 4.03125 21.429688 4.078125 21.671875 4.078125 C 22.367188 4.078125 23.234375 3.644531 24.265625 2.78125 C 25.304688 1.914062 26.367188 0.765625 27.453125 -0.671875 C 28.546875 -2.109375 29.585938 -3.675781 30.578125 -5.375 C 31.566406 -7.082031 32.382812 -8.78125 33.03125 -10.46875 C 33.53125 -11.65625 33.925781 -12.742188 34.21875 -13.734375 C 34.269531 -13.929688 34.40625 -14.363281 34.625 -15.03125 C 34.851562 -15.695312 35.113281 -16.351562 35.40625 -17 C 35.707031 -17.644531 35.957031 -17.96875 36.15625 -17.96875 C 36.195312 -17.96875 36.21875 -17.769531 36.21875 -17.375 C 36.21875 -17.175781 36.242188 -17 36.296875 -16.84375 L 36.453125 -16.703125 L 36.375 -16.703125 C 36.625 -16.554688 36.722656 -16.144531 36.671875 -15.46875 C 36.617188 -14.800781 36.125 -13.332031 35.1875 -11.0625 L 34.734375 -9.796875 L 34.140625 -8.609375 C 33.742188 -7.816406 33.273438 -6.890625 32.734375 -5.828125 C 32.191406 -4.765625 31.796875 -4.0625 31.546875 -3.71875 L 30.8125 -2.59375 C 30.3125 -1.851562 29.875 -1.097656 29.5 -0.328125 C 29.132812 0.429688 28.753906 1.207031 28.359375 2 C 26.671875 4.28125 25.070312 5.738281 23.5625 6.375 C 22.0625 7.019531 20.617188 7.34375 19.234375 7.34375 C 16.160156 7.101562 13.769531 5.867188 12.0625 3.640625 C 10.351562 1.410156 9.351562 -1.359375 9.0625 -4.671875 C 9.007812 -5.117188 9.03125 -5.640625 9.125 -6.234375 C 9.226562 -6.828125 9.351562 -7.445312 9.5 -8.09375 C 9.644531 -8.6875 9.78125 -9.300781 9.90625 -9.9375 C 10.03125 -10.582031 10.117188 -11.203125 10.171875 -11.796875 C 10.171875 -13.035156 10.40625 -14.273438 10.875 -15.515625 C 11.34375 -16.753906 11.828125 -17.84375 12.328125 -18.78125 C 12.722656 -19.570312 13.078125 -20.335938 13.390625 -21.078125 C 13.710938 -21.828125 13.828125 -22.519531 13.734375 -23.15625 C 13.734375 -23.113281 13.71875 -23.101562 13.6875 -23.125 C 13.664062 -23.144531 13.65625 -23.15625 13.65625 -23.15625 L 13.734375 -23.75 C 13.785156 -23.851562 13.8125 -24.003906 13.8125 -24.203125 L 13.8125 -24.28125 C 13.707031 -24.28125 13.628906 -24.253906 13.578125 -24.203125 C 13.429688 -24.148438 13.285156 -24.070312 13.140625 -23.96875 C 12.992188 -23.875 12.867188 -23.828125 12.765625 -23.828125 C 12.671875 -23.828125 12.597656 -23.851562 12.546875 -23.90625 C 12.347656 -23.800781 12.222656 -23.75 12.171875 -23.75 C 11.773438 -23.75 11.28125 -23.875 10.6875 -24.125 C 10.488281 -24.226562 10.238281 -24.335938 9.9375 -24.453125 C 9.644531 -24.578125 9.375 -24.640625 9.125 -24.640625 C 9.03125 -24.640625 8.929688 -24.59375 8.828125 -24.5 C 8.628906 -24.25 8.429688 -23.953125 8.234375 -23.609375 C 8.035156 -23.265625 7.835938 -22.84375 7.640625 -22.34375 C 7.546875 -22 7.5 -21.765625 7.5 -21.640625 C 7.5 -21.515625 7.375 -21.304688 7.125 -21.015625 Z M 7.578125 -32.296875 C 7.671875 -31.742188 7.800781 -31.207031 7.96875 -30.6875 C 8.144531 -30.175781 8.3125 -29.742188 8.46875 -29.390625 L 8.53125 -29.09375 C 9.375 -30.875 10.101562 -32.644531 10.71875 -34.40625 C 11.34375 -36.164062 11.601562 -37.46875 11.5 -38.3125 C 11.5 -38.65625 11.378906 -38.875 11.140625 -38.96875 C 10.691406 -38.769531 10.191406 -38.273438 9.640625 -37.484375 C 9.097656 -36.691406 8.617188 -35.8125 8.203125 -34.84375 C 7.785156 -33.882812 7.578125 -33.035156 7.578125 -32.296875 Z M 7.578125 -32.296875 "/></g></g></g><g fill="#435ebe" fill-opacity="1"><g transform="translate(452.49709, 205.357211)"><g><path d="M 42.171875 -24.203125 L 42.234375 -24.28125 C 42.234375 -24.519531 42.359375 -24.765625 42.609375 -25.015625 C 42.859375 -25.265625 43.109375 -25.390625 43.359375 -25.390625 C 43.359375 -25.390625 43.367188 -25.390625 43.390625 -25.390625 C 43.410156 -25.390625 43.445312 -25.390625 43.5 -25.390625 C 43.945312 -25.242188 44.242188 -24.992188 44.390625 -24.640625 C 44.535156 -24.296875 44.535156 -23.753906 44.390625 -23.015625 L 43.71875 -20.78125 L 42.984375 -19 C 42.929688 -18.800781 42.734375 -18.390625 42.390625 -17.765625 C 42.046875 -17.148438 41.695312 -16.5 41.34375 -15.8125 C 41.195312 -15.3125 41.023438 -14.835938 40.828125 -14.390625 C 40.628906 -13.953125 40.382812 -13.535156 40.09375 -13.140625 L 38.96875 -11.578125 C 38.53125 -11.085938 38.0625 -10.445312 37.5625 -9.65625 C 37.0625 -8.863281 36.691406 -8.269531 36.453125 -7.875 C 36.347656 -7.675781 36.296875 -7.578125 36.296875 -7.578125 L 35.859375 -7.046875 C 35.160156 -6.304688 34.425781 -5.46875 33.65625 -4.53125 C 32.894531 -3.59375 32.316406 -2.847656 31.921875 -2.296875 C 31.867188 -2.148438 31.828125 -1.988281 31.796875 -1.8125 C 31.773438 -1.644531 31.71875 -1.507812 31.625 -1.40625 C 31.625 -1.40625 31.585938 -1.394531 31.515625 -1.375 C 31.441406 -1.351562 31.378906 -1.316406 31.328125 -1.265625 C 30.984375 -0.921875 30.535156 -0.476562 29.984375 0.0625 C 29.441406 0.613281 28.898438 1.160156 28.359375 1.703125 C 28.304688 1.898438 28.21875 2.070312 28.09375 2.21875 C 27.96875 2.375 27.859375 2.523438 27.765625 2.671875 L 27.46875 3.125 L 26.0625 4.53125 C 25.019531 5.71875 23.71875 6.59375 22.15625 7.15625 C 20.601562 7.726562 19.03125 8.140625 17.4375 8.390625 C 16.75 8.535156 16.054688 8.632812 15.359375 8.6875 C 14.671875 8.738281 14.003906 8.765625 13.359375 8.765625 C 13.015625 8.765625 12.484375 8.703125 11.765625 8.578125 C 11.046875 8.453125 10.375 8.289062 9.75 8.09375 C 9.132812 7.894531 8.726562 7.695312 8.53125 7.5 C 8.332031 7.394531 8.132812 7.269531 7.9375 7.125 C 7.9375 7.070312 7.890625 7.046875 7.796875 7.046875 C 7.796875 7.003906 7.742188 6.929688 7.640625 6.828125 C 7.640625 6.828125 7.628906 6.789062 7.609375 6.71875 C 7.585938 6.644531 7.476562 6.609375 7.28125 6.609375 C 6.976562 6.503906 6.878906 6.40625 6.984375 6.3125 C 7.128906 6.0625 7.203125 5.898438 7.203125 5.828125 C 7.203125 5.753906 7.078125 5.691406 6.828125 5.640625 C 6.773438 5.546875 6.710938 5.5 6.640625 5.5 C 6.566406 5.5 6.554688 5.546875 6.609375 5.640625 C 6.503906 5.640625 6.414062 5.601562 6.34375 5.53125 C 6.269531 5.457031 6.109375 5.394531 5.859375 5.34375 C 5.617188 5.34375 5.597656 5.242188 5.796875 5.046875 C 5.890625 5.046875 5.898438 4.992188 5.828125 4.890625 C 5.753906 4.796875 5.644531 4.722656 5.5 4.671875 C 5.144531 4.429688 4.867188 4.1875 4.671875 3.9375 C 4.472656 3.6875 4.300781 3.488281 4.15625 3.34375 C 3.8125 3.34375 3.640625 3.171875 3.640625 2.828125 L 3.640625 2.59375 L 3.71875 2.59375 C 3.8125 2.59375 3.882812 2.445312 3.9375 2.15625 C 3.832031 1.957031 3.878906 1.882812 4.078125 1.9375 C 4.234375 2.082031 4.3125 2.128906 4.3125 2.078125 C 4.351562 1.929688 4.265625 1.660156 4.046875 1.265625 C 3.828125 0.867188 3.59375 0.492188 3.34375 0.140625 C 3.09375 -0.203125 2.941406 -0.375 2.890625 -0.375 C 2.796875 -0.46875 2.773438 -0.515625 2.828125 -0.515625 C 2.972656 -0.671875 2.992188 -1.019531 2.890625 -1.5625 C 2.796875 -2.050781 2.75 -2.617188 2.75 -3.265625 C 2.800781 -3.515625 2.773438 -3.738281 2.671875 -3.9375 C 2.671875 -4.03125 2.65625 -4.101562 2.625 -4.15625 C 2.601562 -4.207031 2.59375 -4.257812 2.59375 -4.3125 L 2.53125 -4.3125 C 2.332031 -4.207031 2.234375 -4.226562 2.234375 -4.375 C 2.234375 -4.53125 2.234375 -4.59375 2.234375 -4.5625 C 2.234375 -4.539062 2.179688 -4.457031 2.078125 -4.3125 L 2 -3.78125 L 1.265625 -4.53125 L 1.265625 -4.375 C 1.265625 -3.832031 1.289062 -3.488281 1.34375 -3.34375 C 1.34375 -3.34375 1.328125 -3.34375 1.296875 -3.34375 C 1.273438 -3.34375 1.238281 -3.367188 1.1875 -3.421875 C 1.132812 -3.421875 1.085938 -3.441406 1.046875 -3.484375 L 1.046875 -3.640625 C 0.992188 -3.734375 0.929688 -3.890625 0.859375 -4.109375 C 0.785156 -4.335938 0.722656 -4.601562 0.671875 -4.90625 C 0.523438 -5.644531 0.410156 -6.421875 0.328125 -7.234375 C 0.253906 -8.054688 0.171875 -8.8125 0.078125 -9.5 C 0.078125 -10.34375 0.125 -11.171875 0.21875 -11.984375 C 0.320312 -12.804688 0.421875 -13.660156 0.515625 -14.546875 L 0.8125 -16.328125 C 1.164062 -17.816406 1.613281 -19.335938 2.15625 -20.890625 C 2.695312 -22.453125 3.363281 -24.097656 4.15625 -25.828125 C 4.5 -26.328125 5.03125 -26.648438 5.75 -26.796875 C 6.46875 -26.941406 6.925781 -27.140625 7.125 -27.390625 C 7.375 -27.734375 7.5625 -28.003906 7.6875 -28.203125 C 7.8125 -28.398438 7.894531 -28.523438 7.9375 -28.578125 C 7.988281 -28.773438 8.296875 -28.984375 8.859375 -29.203125 C 9.429688 -29.429688 10.003906 -29.65625 10.578125 -29.875 C 11.148438 -30.101562 11.457031 -30.265625 11.5 -30.359375 C 11.550781 -30.359375 11.378906 -30.382812 10.984375 -30.4375 C 10.585938 -30.488281 10.175781 -30.550781 9.75 -30.625 C 9.332031 -30.695312 9.101562 -30.757812 9.0625 -30.8125 C 8.757812 -30.90625 8.382812 -31.195312 7.9375 -31.6875 C 7.5 -32.1875 7.09375 -32.71875 6.71875 -33.28125 C 6.34375 -33.851562 6.054688 -34.265625 5.859375 -34.515625 C 5.816406 -34.617188 5.734375 -34.707031 5.609375 -34.78125 C 5.484375 -34.851562 5.421875 -34.914062 5.421875 -34.96875 C 5.515625 -35.3125 5.570312 -35.628906 5.59375 -35.921875 C 5.625 -36.222656 5.664062 -36.519531 5.71875 -36.8125 C 5.769531 -37.21875 5.597656 -37.53125 5.203125 -37.75 C 4.804688 -37.96875 4.628906 -38.273438 4.671875 -38.671875 C 4.628906 -38.867188 4.582031 -39.078125 4.53125 -39.296875 C 4.476562 -39.523438 4.425781 -39.738281 4.375 -39.9375 L 4.3125 -40.15625 C 4.3125 -40.257812 4.296875 -40.375 4.265625 -40.5 C 4.242188 -40.625 4.207031 -40.757812 4.15625 -40.90625 C 4.007812 -41.695312 3.921875 -42.335938 3.890625 -42.828125 C 3.867188 -43.328125 3.921875 -43.859375 4.046875 -44.421875 C 4.171875 -44.992188 4.378906 -45.75 4.671875 -46.6875 C 5.910156 -50.800781 7.59375 -54.863281 9.71875 -58.875 L 11.140625 -62.140625 C 11.234375 -62.535156 11.476562 -62.878906 11.875 -63.171875 C 12.269531 -63.472656 12.46875 -63.722656 12.46875 -63.921875 C 12.71875 -64.210938 13.335938 -64.703125 14.328125 -65.390625 C 15.316406 -66.085938 16.429688 -66.78125 17.671875 -67.46875 C 18.910156 -68.164062 20 -68.613281 20.9375 -68.8125 C 21.03125 -68.914062 21.140625 -68.988281 21.265625 -69.03125 C 21.390625 -69.082031 21.476562 -69.132812 21.53125 -69.1875 C 21.726562 -69.1875 21.910156 -69.195312 22.078125 -69.21875 C 22.253906 -69.25 22.441406 -69.265625 22.640625 -69.265625 L 24.640625 -69.40625 C 25.335938 -69.40625 26.03125 -69.40625 26.71875 -69.40625 C 27.414062 -69.40625 28.109375 -69.40625 28.796875 -69.40625 C 29.046875 -69.257812 29.441406 -69.0625 29.984375 -68.8125 C 30.535156 -68.5625 31.109375 -68.390625 31.703125 -68.296875 C 32.785156 -68.148438 33.5 -67.601562 33.84375 -66.65625 C 34.59375 -67.007812 35.1875 -67.1875 35.625 -67.1875 C 36.175781 -67.1875 36.472656 -67.023438 36.515625 -66.703125 C 36.566406 -66.378906 36.691406 -66.117188 36.890625 -65.921875 C 37.335938 -65.773438 37.796875 -65.648438 38.265625 -65.546875 C 38.734375 -65.453125 39.21875 -65.40625 39.71875 -65.40625 L 40.15625 -64.65625 C 40.351562 -64.507812 40.539062 -64.335938 40.71875 -64.140625 C 40.894531 -63.941406 41.082031 -63.71875 41.28125 -63.46875 C 41.375 -63.269531 41.492188 -63.046875 41.640625 -62.796875 C 41.796875 -62.554688 41.921875 -62.285156 42.015625 -61.984375 C 42.460938 -60.992188 42.414062 -59.859375 41.875 -58.578125 C 41.675781 -58.023438 41.425781 -57.578125 41.125 -57.234375 C 40.832031 -56.890625 40.488281 -56.617188 40.09375 -56.421875 C 39.644531 -56.171875 39.171875 -56 38.671875 -55.90625 C 38.234375 -55.75 37.816406 -55.671875 37.421875 -55.671875 C 37.117188 -55.671875 36.769531 -55.75 36.375 -55.90625 C 36.125 -55.945312 36.046875 -56.300781 36.140625 -56.96875 C 36.242188 -57.644531 36.367188 -58.363281 36.515625 -59.125 C 36.671875 -59.894531 36.648438 -60.476562 36.453125 -60.875 C 36.492188 -61.5625 36.492188 -62.101562 36.453125 -62.5 C 35.898438 -62.851562 35.289062 -63.285156 34.625 -63.796875 C 33.957031 -64.316406 33.328125 -64.828125 32.734375 -65.328125 C 32.441406 -65.578125 32.117188 -65.722656 31.765625 -65.765625 C 31.421875 -65.816406 31.050781 -65.84375 30.65625 -65.84375 C 29.863281 -65.84375 29.222656 -65.796875 28.734375 -65.703125 C 28.484375 -65.648438 28.269531 -65.5625 28.09375 -65.4375 C 27.925781 -65.3125 27.84375 -65.25 27.84375 -65.25 C 27.789062 -65.101562 27.429688 -64.609375 26.765625 -63.765625 C 26.097656 -62.921875 25.515625 -62.203125 25.015625 -61.609375 L 23.984375 -60.65625 C 23.628906 -60.0625 23.28125 -59.414062 22.9375 -58.71875 C 22.59375 -58.03125 22.269531 -57.289062 21.96875 -56.5 L 21.609375 -56.125 C 21.253906 -55.28125 20.925781 -54.4375 20.625 -53.59375 C 20.332031 -52.75 20.066406 -51.910156 19.828125 -51.078125 C 19.378906 -50.628906 19.082031 -50.179688 18.9375 -49.734375 C 18.832031 -49.535156 18.703125 -49.039062 18.546875 -48.25 C 18.398438 -47.457031 18.289062 -46.703125 18.21875 -45.984375 C 18.144531 -45.265625 18.132812 -44.90625 18.1875 -44.90625 L 18.265625 -44.90625 C 18.265625 -44.863281 18.273438 -44.78125 18.296875 -44.65625 C 18.316406 -44.53125 18.328125 -44.394531 18.328125 -44.25 C 18.378906 -44.25 18.40625 -44.171875 18.40625 -44.015625 C 18.257812 -43.617188 18.257812 -43.125 18.40625 -42.53125 C 18.5625 -41.9375 18.710938 -41.34375 18.859375 -40.75 L 19.375 -39.640625 C 19.476562 -39.296875 19.566406 -39 19.640625 -38.75 C 19.710938 -38.5 19.921875 -38.203125 20.265625 -37.859375 C 20.804688 -37.660156 21.421875 -37.472656 22.109375 -37.296875 C 22.804688 -37.128906 23.476562 -37.019531 24.125 -36.96875 C 24.320312 -36.96875 24.53125 -36.96875 24.75 -36.96875 C 24.976562 -36.96875 25.191406 -36.941406 25.390625 -36.890625 C 25.484375 -36.796875 25.582031 -36.75 25.6875 -36.75 C 25.6875 -36.75 25.984375 -36.671875 26.578125 -36.515625 C 27.421875 -36.566406 28.175781 -36.617188 28.84375 -36.671875 C 29.507812 -36.722656 30.039062 -36.769531 30.4375 -36.8125 C 31.519531 -36.125 31.863281 -35.085938 31.46875 -33.703125 C 31.175781 -32.804688 30.734375 -32.0625 30.140625 -31.46875 L 29.09375 -30.8125 C 28.5 -30.363281 27.929688 -29.988281 27.390625 -29.6875 C 26.847656 -29.394531 26.226562 -29.125 25.53125 -28.875 C 24.894531 -28.726562 24.265625 -28.566406 23.640625 -28.390625 C 23.023438 -28.222656 22.367188 -27.941406 21.671875 -27.546875 C 21.328125 -26.992188 20.96875 -26.394531 20.59375 -25.75 C 20.226562 -25.113281 19.921875 -24.445312 19.671875 -23.75 C 19.179688 -22.957031 18.882812 -22.21875 18.78125 -21.53125 C 18.726562 -21.226562 18.675781 -20.941406 18.625 -20.671875 C 18.582031 -20.398438 18.535156 -20.140625 18.484375 -19.890625 L 18.40625 -19.890625 C 18.351562 -19.597656 18.175781 -19.128906 17.875 -18.484375 C 17.582031 -17.835938 17.285156 -17.203125 16.984375 -16.578125 C 16.691406 -15.960938 16.523438 -15.484375 16.484375 -15.140625 C 16.484375 -15.046875 16.457031 -14.972656 16.40625 -14.921875 C 16.351562 -14.671875 16.300781 -14.429688 16.25 -14.203125 C 16.207031 -13.984375 16.132812 -13.753906 16.03125 -13.515625 C 15.6875 -12.765625 15.425781 -11.882812 15.25 -10.875 C 15.082031 -9.863281 15.019531 -8.910156 15.0625 -8.015625 C 15.0625 -7.328125 15.160156 -6.570312 15.359375 -5.75 C 15.554688 -4.9375 15.832031 -4.332031 16.1875 -3.9375 C 16.425781 -3.394531 16.867188 -2.835938 17.515625 -2.265625 C 18.160156 -1.691406 18.609375 -1.382812 18.859375 -1.34375 C 19.054688 -1.289062 19.273438 -1.226562 19.515625 -1.15625 C 19.765625 -1.082031 20.015625 -1.046875 20.265625 -1.046875 C 20.515625 -1.046875 20.710938 -1.066406 20.859375 -1.109375 C 20.960938 -1.066406 21.1875 -0.957031 21.53125 -0.78125 C 21.875 -0.601562 22.242188 -0.515625 22.640625 -0.515625 C 23.085938 -0.515625 23.457031 -0.664062 23.75 -0.96875 C 24.445312 -1.363281 25.191406 -1.820312 25.984375 -2.34375 C 26.773438 -2.863281 27.441406 -3.394531 27.984375 -3.9375 C 28.628906 -4.425781 29.25 -4.941406 29.84375 -5.484375 C 30.4375 -6.035156 30.976562 -6.535156 31.46875 -6.984375 C 32.113281 -7.722656 32.804688 -8.5625 33.546875 -9.5 C 34.296875 -10.4375 35.015625 -11.398438 35.703125 -12.390625 C 37.085938 -14.367188 38.222656 -16.015625 39.109375 -17.328125 C 40.003906 -18.640625 40.378906 -19.546875 40.234375 -20.046875 C 40.628906 -20.734375 40.988281 -21.472656 41.3125 -22.265625 C 41.632812 -23.054688 41.921875 -23.628906 42.171875 -23.984375 Z M 42.171875 -24.203125 "/></g></g></g><g fill="#435ebe" fill-opacity="1"><g transform="translate(488.851924, 205.357211)"><g><path d="M 6.453125 -5.203125 L 6.53125 -5.125 L 6.6875 -4.375 C 6.6875 -4.132812 6.734375 -3.816406 6.828125 -3.421875 C 6.929688 -3.222656 6.984375 -3.046875 6.984375 -2.890625 C 7.078125 -2.148438 7.347656 -1.78125 7.796875 -1.78125 L 8.015625 -1.78125 C 8.710938 -1.78125 9.296875 -1.960938 9.765625 -2.328125 C 10.234375 -2.703125 10.691406 -3.140625 11.140625 -3.640625 C 11.734375 -4.484375 12.335938 -5.5 12.953125 -6.6875 C 13.566406 -7.875 14.148438 -9.007812 14.703125 -10.09375 C 15.097656 -10.9375 15.492188 -11.738281 15.890625 -12.5 C 16.285156 -13.269531 16.65625 -13.925781 17 -14.46875 C 17.144531 -14.769531 17.28125 -15.117188 17.40625 -15.515625 C 17.53125 -15.910156 17.640625 -16.304688 17.734375 -16.703125 C 17.890625 -17.148438 18.039062 -17.484375 18.1875 -17.703125 C 18.332031 -17.921875 18.457031 -18.109375 18.5625 -18.265625 C 18.707031 -18.410156 18.90625 -18.804688 19.15625 -19.453125 C 19.15625 -19.796875 19.390625 -20.039062 19.859375 -20.1875 C 20.328125 -20.34375 20.84375 -20.441406 21.40625 -20.484375 C 21.976562 -20.535156 22.390625 -20.5625 22.640625 -20.5625 C 23.335938 -20.5625 23.984375 -20.523438 24.578125 -20.453125 C 25.171875 -20.378906 25.738281 -20.070312 26.28125 -19.53125 C 26.332031 -19.425781 26.359375 -19.328125 26.359375 -19.234375 L 26.359375 -19.15625 L 26.5 -19.078125 L 26.421875 -19.078125 C 26.617188 -18.929688 26.789062 -18.78125 26.9375 -18.625 C 27.09375 -18.476562 27.195312 -18.257812 27.25 -17.96875 C 27.289062 -17.863281 27.222656 -17.578125 27.046875 -17.109375 C 26.878906 -16.640625 26.695312 -16.15625 26.5 -15.65625 C 26.15625 -14.820312 25.984375 -14.28125 25.984375 -14.03125 C 25.984375 -13.832031 25.929688 -13.582031 25.828125 -13.28125 C 25.734375 -13.082031 25.625 -12.773438 25.5 -12.359375 C 25.375 -11.941406 25.3125 -11.3125 25.3125 -10.46875 C 25.257812 -9.875 25.171875 -9.34375 25.046875 -8.875 C 24.929688 -8.40625 24.773438 -7.945312 24.578125 -7.5 C 24.472656 -7.195312 24.367188 -6.894531 24.265625 -6.59375 C 24.171875 -6.300781 24.078125 -5.984375 23.984375 -5.640625 L 23.09375 -2.96875 C 22.59375 -1.976562 22.367188 -1.359375 22.421875 -1.109375 C 22.421875 -1.015625 22.554688 -0.941406 22.828125 -0.890625 C 23.097656 -0.835938 23.332031 -0.8125 23.53125 -0.8125 C 24.125 -0.8125 24.789062 -1.132812 25.53125 -1.78125 C 26.28125 -2.425781 27.007812 -3.207031 27.71875 -4.125 C 28.4375 -5.039062 29.019531 -5.867188 29.46875 -6.609375 L 31.703125 -10.546875 C 31.898438 -10.835938 32.144531 -11.191406 32.4375 -11.609375 C 32.738281 -12.035156 33.007812 -12.546875 33.25 -13.140625 C 33.40625 -13.484375 33.628906 -13.878906 33.921875 -14.328125 C 34.222656 -14.773438 34.472656 -15.171875 34.671875 -15.515625 L 36.453125 -18.328125 C 36.691406 -18.578125 36.988281 -18.703125 37.34375 -18.703125 C 37.789062 -18.703125 38.035156 -18.457031 38.078125 -17.96875 C 38.078125 -17.863281 38.078125 -17.75 38.078125 -17.625 C 38.078125 -17.5 38.054688 -17.335938 38.015625 -17.140625 C 38.015625 -16.992188 37.789062 -16.578125 37.34375 -15.890625 C 37.039062 -15.492188 36.65625 -14.945312 36.1875 -14.25 C 35.71875 -13.5625 35.160156 -12.644531 34.515625 -11.5 C 34.265625 -11.15625 33.890625 -10.597656 33.390625 -9.828125 C 32.898438 -9.066406 32.382812 -8.238281 31.84375 -7.34375 C 31.25 -6.40625 30.679688 -5.488281 30.140625 -4.59375 C 29.597656 -3.707031 29.175781 -3.066406 28.875 -2.671875 C 28.675781 -2.222656 28.253906 -1.648438 27.609375 -0.953125 C 26.972656 -0.265625 26.296875 0.335938 25.578125 0.859375 C 24.859375 1.378906 24.25 1.660156 23.75 1.703125 L 23.15625 1.9375 C 22.863281 2.03125 22.582031 2.125 22.3125 2.21875 C 22.039062 2.320312 21.753906 2.375 21.453125 2.375 C 20.710938 2.375 19.96875 2.101562 19.21875 1.5625 C 18.476562 1.019531 17.835938 0.363281 17.296875 -0.40625 C 16.753906 -1.175781 16.382812 -1.859375 16.1875 -2.453125 C 15.9375 -3.097656 15.8125 -3.789062 15.8125 -4.53125 C 15.757812 -4.726562 15.734375 -4.9375 15.734375 -5.15625 C 15.734375 -5.382812 15.734375 -5.597656 15.734375 -5.796875 C 15.734375 -5.992188 15.734375 -6.191406 15.734375 -6.390625 C 15.734375 -6.585938 15.707031 -6.804688 15.65625 -7.046875 L 15.59375 -7.640625 C 15.59375 -7.691406 15.601562 -7.726562 15.625 -7.75 C 15.644531 -7.78125 15.65625 -7.820312 15.65625 -7.875 C 15.707031 -8.164062 15.734375 -8.285156 15.734375 -8.234375 L 14.703125 -6.6875 L 14.703125 -6.75 L 13.28125 -3.9375 C 13.082031 -3.738281 12.929688 -3.550781 12.828125 -3.375 C 12.734375 -3.207031 12.640625 -3.023438 12.546875 -2.828125 C 12.148438 -2.179688 11.71875 -1.582031 11.25 -1.03125 C 10.78125 -0.488281 10.320312 -0.195312 9.875 -0.15625 L 9.578125 0.078125 C 9.078125 0.421875 8.617188 0.738281 8.203125 1.03125 C 7.785156 1.332031 7.398438 1.484375 7.046875 1.484375 C 5.859375 1.484375 4.597656 1.234375 3.265625 0.734375 C 1.929688 0.242188 0.78125 -0.539062 -0.1875 -1.625 C -1.15625 -2.71875 -1.738281 -4.15625 -1.9375 -5.9375 C -2.03125 -7.625 -1.691406 -9.539062 -0.921875 -11.6875 C -0.160156 -13.84375 0.789062 -15.859375 1.9375 -17.734375 L 2.59375 -19.234375 C 3.539062 -20.460938 4.546875 -21.679688 5.609375 -22.890625 C 6.671875 -24.109375 7.84375 -25.164062 9.125 -26.0625 L 10.25 -26.578125 L 10.171875 -26.578125 C 11.160156 -27.265625 12.367188 -27.832031 13.796875 -28.28125 C 15.234375 -28.726562 16.347656 -28.953125 17.140625 -28.953125 L 17.515625 -28.953125 C 18.210938 -28.804688 19.003906 -28.445312 19.890625 -27.875 C 20.785156 -27.300781 21.59375 -26.691406 22.3125 -26.046875 C 23.03125 -25.410156 23.410156 -24.84375 23.453125 -24.34375 C 23.554688 -23.550781 23.257812 -23.082031 22.5625 -22.9375 C 22.46875 -22.988281 22.296875 -23.015625 22.046875 -23.015625 C 21.253906 -23.015625 20.140625 -22.835938 18.703125 -22.484375 C 17.265625 -22.140625 16.128906 -21.523438 15.296875 -20.640625 L 13.953125 -19.375 C 13.304688 -18.78125 12.632812 -18.132812 11.9375 -17.4375 C 11.25 -16.75 10.804688 -15.984375 10.609375 -15.140625 C 10.265625 -14.546875 9.96875 -13.976562 9.71875 -13.4375 C 9.476562 -12.894531 9.234375 -12.328125 8.984375 -11.734375 L 8.3125 -10.3125 C 8.0625 -9.769531 7.828125 -9.265625 7.609375 -8.796875 C 7.390625 -8.328125 7.15625 -7.742188 6.90625 -7.046875 L 6.828125 -6.609375 L 6.828125 -6.6875 C 6.773438 -6.4375 6.695312 -6.148438 6.59375 -5.828125 C 6.5 -5.503906 6.453125 -5.296875 6.453125 -5.203125 Z M 6.453125 -5.203125 "/></g></g></g><g fill="#435ebe" fill-opacity="1"><g transform="translate(521.719624, 205.357211)"><g><path d="M 8.90625 1.640625 C 8.0625 1.640625 7.320312 1.460938 6.6875 1.109375 C 6.632812 1.109375 6.507812 1.0625 6.3125 0.96875 C 6.257812 0.96875 6.21875 0.96875 6.1875 0.96875 C 6.164062 0.96875 6.132812 0.96875 6.09375 0.96875 C 5.644531 0.96875 5.109375 0.851562 4.484375 0.625 C 3.867188 0.40625 3.21875 0.144531 2.53125 -0.15625 L 2.453125 -0.21875 C 1.117188 -0.863281 0.351562 -1.878906 0.15625 -3.265625 C 0.0507812 -3.960938 0.207031 -4.617188 0.625 -5.234375 C 1.050781 -5.847656 1.585938 -6.332031 2.234375 -6.6875 C 2.828125 -7.226562 3.773438 -7.679688 5.078125 -8.046875 C 6.390625 -8.421875 7.46875 -8.609375 8.3125 -8.609375 C 8.8125 -8.609375 9.132812 -8.5625 9.28125 -8.46875 C 9.675781 -8.707031 9.898438 -9.078125 9.953125 -9.578125 C 9.953125 -9.628906 9.960938 -9.675781 9.984375 -9.71875 C 10.003906 -9.769531 10.015625 -9.820312 10.015625 -9.875 C 10.210938 -10.269531 10.289062 -10.59375 10.25 -10.84375 C 10.25 -11.238281 10.320312 -11.65625 10.46875 -12.09375 C 10.5625 -12.445312 10.632812 -12.804688 10.6875 -13.171875 C 10.738281 -13.546875 10.691406 -13.929688 10.546875 -14.328125 L 10.984375 -17.671875 C 10.835938 -17.960938 10.75 -18.253906 10.71875 -18.546875 C 10.695312 -18.847656 10.660156 -19.148438 10.609375 -19.453125 C 10.609375 -20.046875 10.488281 -20.613281 10.25 -21.15625 C 10.195312 -21.550781 10.117188 -21.945312 10.015625 -22.34375 C 9.921875 -22.738281 9.75 -23.160156 9.5 -23.609375 C 9.40625 -23.703125 9.28125 -23.972656 9.125 -24.421875 C 8.976562 -24.367188 8.71875 -24.019531 8.34375 -23.375 C 7.976562 -22.738281 7.523438 -21.925781 6.984375 -20.9375 C 6.335938 -19.84375 5.628906 -18.601562 4.859375 -17.21875 C 4.097656 -15.832031 3.296875 -14.644531 2.453125 -13.65625 C 2.347656 -13.5625 2.273438 -13.515625 2.234375 -13.515625 C 2.035156 -13.515625 1.9375 -13.867188 1.9375 -14.578125 C 1.9375 -15.296875 2.109375 -15.976562 2.453125 -16.625 C 2.597656 -16.875 2.914062 -17.46875 3.40625 -18.40625 C 3.90625 -19.351562 4.453125 -20.394531 5.046875 -21.53125 C 5.640625 -22.664062 6.179688 -23.738281 6.671875 -24.75 C 7.171875 -25.769531 7.492188 -26.476562 7.640625 -26.875 L 7.203125 -35.1875 C 7.296875 -35.582031 7.515625 -36.015625 7.859375 -36.484375 C 8.210938 -36.953125 8.5625 -37.382812 8.90625 -37.78125 C 9.15625 -38.082031 9.390625 -38.394531 9.609375 -38.71875 C 9.835938 -39.039062 10 -39.320312 10.09375 -39.5625 L 10.390625 -39.859375 C 11.328125 -40.804688 11.972656 -41.28125 12.328125 -41.28125 C 12.617188 -41.28125 12.9375 -41.128906 13.28125 -40.828125 L 13.578125 -40.609375 C 13.828125 -40.460938 14.097656 -40.300781 14.390625 -40.125 C 14.691406 -39.945312 15.015625 -39.710938 15.359375 -39.421875 C 15.804688 -38.921875 16.238281 -38.375 16.65625 -37.78125 C 17.082031 -37.1875 17.367188 -36.546875 17.515625 -35.859375 L 17.734375 -34.96875 C 17.785156 -34.8125 17.835938 -34.644531 17.890625 -34.46875 C 17.941406 -34.300781 17.988281 -34.09375 18.03125 -33.84375 C 18.132812 -33.351562 17.972656 -32.75 17.546875 -32.03125 C 17.128906 -31.3125 16.648438 -30.609375 16.109375 -29.921875 C 15.804688 -29.523438 15.519531 -29.113281 15.25 -28.6875 C 14.976562 -28.269531 14.769531 -27.890625 14.625 -27.546875 C 14.914062 -27.148438 15.304688 -26.429688 15.796875 -25.390625 C 16.296875 -24.347656 16.769531 -23.304688 17.21875 -22.265625 C 17.664062 -21.234375 17.960938 -20.46875 18.109375 -19.96875 L 19.078125 -19.078125 L 19.890625 -16.84375 C 20.140625 -16.644531 20.238281 -16.492188 20.1875 -16.390625 C 20.144531 -16.296875 20.070312 -16.148438 19.96875 -15.953125 C 19.820312 -15.804688 19.796875 -15.660156 19.890625 -15.515625 L 20.125 -14.765625 C 20.125 -14.523438 20.171875 -14.207031 20.265625 -13.8125 C 20.410156 -13.019531 20.410156 -12.472656 20.265625 -12.171875 C 20.210938 -11.972656 20.125 -11.75 20 -11.5 C 19.882812 -11.257812 19.726562 -11.015625 19.53125 -10.765625 C 19.332031 -10.515625 19.15625 -10.226562 19 -9.90625 C 18.851562 -9.582031 18.753906 -9.273438 18.703125 -8.984375 L 20.265625 -9.5 C 20.710938 -9.601562 21.132812 -9.765625 21.53125 -9.984375 C 21.925781 -10.203125 22.269531 -10.410156 22.5625 -10.609375 L 22.5 -10.609375 L 22.71875 -10.765625 C 24.15625 -11.753906 25.453125 -12.976562 26.609375 -14.4375 C 27.773438 -15.894531 28.753906 -17.394531 29.546875 -18.9375 C 29.835938 -19.226562 30.132812 -19.375 30.4375 -19.375 C 31.175781 -19.375 31.421875 -18.878906 31.171875 -17.890625 C 31.171875 -17.691406 31.070312 -17.457031 30.875 -17.1875 C 30.675781 -16.914062 30.429688 -16.582031 30.140625 -16.1875 C 29.796875 -15.539062 29.410156 -14.882812 28.984375 -14.21875 C 28.566406 -13.550781 28.0625 -12.894531 27.46875 -12.25 L 27.015625 -11.4375 C 26.472656 -10.882812 25.816406 -10.3125 25.046875 -9.71875 C 24.285156 -9.125 23.382812 -8.554688 22.34375 -8.015625 L 21.828125 -7.796875 C 21.523438 -7.648438 21.1875 -7.5 20.8125 -7.34375 C 20.445312 -7.195312 20.066406 -7.078125 19.671875 -6.984375 C 19.523438 -6.929688 19.335938 -6.84375 19.109375 -6.71875 C 18.890625 -6.59375 18.707031 -6.503906 18.5625 -6.453125 L 17.734375 -6.453125 C 17.691406 -5.515625 17.445312 -4.5625 17 -3.59375 C 16.550781 -2.632812 16.179688 -1.882812 15.890625 -1.34375 C 15.734375 -1.144531 15.503906 -0.957031 15.203125 -0.78125 C 14.910156 -0.601562 14.617188 -0.441406 14.328125 -0.296875 L 13.65625 0.15625 C 13.257812 0.5 12.53125 0.816406 11.46875 1.109375 C 10.40625 1.410156 9.550781 1.585938 8.90625 1.640625 Z M 2.59375 -3.34375 C 2.550781 -3.039062 2.726562 -2.753906 3.125 -2.484375 C 3.519531 -2.210938 3.960938 -2.078125 4.453125 -2.078125 C 5.585938 -2.078125 6.550781 -2.5 7.34375 -3.34375 C 8.132812 -4.1875 8.628906 -5.125 8.828125 -6.15625 C 8.785156 -6.257812 8.328125 -6.210938 7.453125 -6.015625 C 6.585938 -5.816406 5.671875 -5.492188 4.703125 -5.046875 C 3.742188 -4.597656 3.039062 -4.03125 2.59375 -3.34375 Z M 2.59375 -3.34375 "/></g></g></g><g fill="#435ebe" fill-opacity="1"><g transform="translate(547.76155, 205.357211)"><g><path d="M 19.375 -17.515625 L 19 -17.21875 C 18.0625 -15.882812 16.875 -14.671875 15.4375 -13.578125 C 15.144531 -13.234375 14.660156 -12.773438 13.984375 -12.203125 C 13.316406 -11.640625 12.660156 -11.125 12.015625 -10.65625 C 11.378906 -10.1875 10.910156 -9.875 10.609375 -9.71875 L 8.765625 -8.828125 C 8.410156 -8.429688 8.179688 -7.828125 8.078125 -7.015625 C 7.984375 -6.203125 7.9375 -5.347656 7.9375 -4.453125 C 7.9375 -3.765625 7.960938 -3.082031 8.015625 -2.40625 C 8.066406 -1.738281 8.117188 -1.1875 8.171875 -0.75 C 8.210938 -0.351562 8.519531 -0.03125 9.09375 0.21875 C 9.664062 0.46875 10.269531 0.59375 10.90625 0.59375 C 11.65625 0.59375 12.695312 0.257812 14.03125 -0.40625 C 15.363281 -1.070312 16.820312 -2.035156 18.40625 -3.296875 C 19.988281 -4.566406 21.472656 -6.09375 22.859375 -7.875 C 22.960938 -8.113281 23.097656 -8.34375 23.265625 -8.5625 C 23.441406 -8.789062 23.582031 -9.003906 23.6875 -9.203125 C 23.925781 -9.597656 24.304688 -10.066406 24.828125 -10.609375 C 25.347656 -11.160156 25.78125 -11.753906 26.125 -12.390625 C 26.820312 -13.535156 27.503906 -14.640625 28.171875 -15.703125 C 28.835938 -16.765625 29.34375 -17.34375 29.6875 -17.4375 C 29.9375 -17.59375 30.160156 -17.671875 30.359375 -17.671875 L 30.734375 -17.8125 L 30.734375 -17.734375 C 30.828125 -17.785156 30.882812 -17.820312 30.90625 -17.84375 C 30.9375 -17.875 30.953125 -17.890625 30.953125 -17.890625 C 31.054688 -17.890625 31.128906 -17.71875 31.171875 -17.375 C 31.222656 -16.976562 31.085938 -16.53125 30.765625 -16.03125 C 30.441406 -15.539062 30.007812 -14.945312 29.46875 -14.25 C 29.269531 -13.851562 28.972656 -13.34375 28.578125 -12.71875 C 28.179688 -12.101562 27.757812 -11.523438 27.3125 -10.984375 L 26.953125 -10.390625 C 26.953125 -10.335938 26.898438 -10.210938 26.796875 -10.015625 L 26.578125 -9.359375 L 25.09375 -7.421875 C 24.644531 -6.828125 24.125 -6.21875 23.53125 -5.59375 C 22.9375 -4.976562 22.46875 -4.375 22.125 -3.78125 L 21.96875 -3.640625 C 21.476562 -2.992188 20.875 -2.300781 20.15625 -1.5625 C 19.4375 -0.820312 18.726562 -0.226562 18.03125 0.21875 L 15.734375 1.78125 C 14.796875 2.425781 13.90625 2.96875 13.0625 3.40625 C 12.21875 3.851562 11.226562 4.078125 10.09375 4.078125 C 9.101562 4.078125 8 3.96875 6.78125 3.75 C 5.570312 3.53125 4.550781 3.144531 3.71875 2.59375 L 3.640625 2.53125 C 2.992188 2.28125 2.285156 1.757812 1.515625 0.96875 C 0.753906 0.175781 0.25 -1.035156 0 -2.671875 L 0.078125 -2.671875 C -0.117188 -2.972656 -0.28125 -3.28125 -0.40625 -3.59375 C -0.53125 -3.914062 -0.59375 -4.226562 -0.59375 -4.53125 C -0.59375 -4.53125 -0.59375 -4.765625 -0.59375 -5.234375 C -0.59375 -5.703125 -0.566406 -6.207031 -0.515625 -6.75 C -0.515625 -7.300781 -0.503906 -7.796875 -0.484375 -8.234375 C -0.460938 -8.679688 -0.472656 -8.929688 -0.515625 -8.984375 C -0.515625 -9.773438 -0.460938 -10.566406 -0.359375 -11.359375 C -0.265625 -12.148438 -0.171875 -12.941406 -0.078125 -13.734375 C -0.078125 -13.878906 -0.0507812 -13.976562 0 -14.03125 C 0 -14.125 0.0078125 -14.21875 0.03125 -14.3125 C 0.0625 -14.414062 0.078125 -14.492188 0.078125 -14.546875 C 0.273438 -15.390625 0.535156 -16.191406 0.859375 -16.953125 C 1.179688 -17.722656 1.515625 -18.484375 1.859375 -19.234375 L 2.375 -20.640625 L 2.671875 -21.078125 C 3.066406 -21.671875 3.507812 -22.363281 4 -23.15625 C 4.5 -23.945312 4.921875 -24.46875 5.265625 -24.71875 L 6.234375 -25.765625 C 6.628906 -26.253906 7.050781 -26.734375 7.5 -27.203125 C 7.945312 -27.671875 8.390625 -28.082031 8.828125 -28.4375 C 9.078125 -28.675781 9.273438 -28.820312 9.421875 -28.875 L 9.421875 -28.796875 L 9.796875 -29.09375 C 10.140625 -29.394531 10.472656 -29.59375 10.796875 -29.6875 C 11.117188 -29.789062 11.40625 -29.84375 11.65625 -29.84375 C 11.75 -29.84375 11.859375 -29.828125 11.984375 -29.796875 C 12.109375 -29.773438 12.222656 -29.765625 12.328125 -29.765625 L 12.84375 -29.765625 C 13.039062 -29.765625 13.335938 -29.890625 13.734375 -30.140625 C 13.929688 -30.234375 14.128906 -30.316406 14.328125 -30.390625 C 14.523438 -30.472656 14.695312 -30.515625 14.84375 -30.515625 C 14.988281 -30.515625 15.085938 -30.488281 15.140625 -30.4375 C 15.335938 -30.53125 15.519531 -30.578125 15.6875 -30.578125 C 15.863281 -30.578125 16.03125 -30.578125 16.1875 -30.578125 C 16.382812 -30.578125 16.800781 -30.539062 17.4375 -30.46875 C 18.082031 -30.394531 18.789062 -30.195312 19.5625 -29.875 C 20.332031 -29.550781 21.035156 -29.039062 21.671875 -28.34375 C 22.316406 -27.65625 22.710938 -26.671875 22.859375 -25.390625 C 22.859375 -24.253906 22.613281 -23.164062 22.125 -22.125 C 22.070312 -21.925781 21.894531 -21.53125 21.59375 -20.9375 C 21.300781 -20.34375 20.941406 -19.722656 20.515625 -19.078125 C 20.097656 -18.429688 19.71875 -17.910156 19.375 -17.515625 Z M 15.515625 -21.453125 L 15.140625 -21.15625 C 15.085938 -21.101562 15.023438 -21.003906 14.953125 -20.859375 C 14.878906 -20.710938 14.816406 -20.566406 14.765625 -20.421875 C 14.765625 -20.367188 14.738281 -20.316406 14.6875 -20.265625 C 14.644531 -20.210938 14.625 -20.164062 14.625 -20.125 C 13.632812 -18.582031 12.78125 -17.09375 12.0625 -15.65625 C 11.34375 -14.226562 10.859375 -13.140625 10.609375 -12.390625 C 10.910156 -12.546875 11.207031 -12.742188 11.5 -12.984375 C 11.800781 -13.234375 12.078125 -13.457031 12.328125 -13.65625 L 13.953125 -15 C 15.441406 -16.425781 16.703125 -17.941406 17.734375 -19.546875 C 18.773438 -21.160156 19.320312 -22.640625 19.375 -23.984375 C 19.28125 -24.078125 19.171875 -24.1875 19.046875 -24.3125 C 18.921875 -24.4375 18.785156 -24.523438 18.640625 -24.578125 C 18.335938 -24.523438 17.875 -24.175781 17.25 -23.53125 C 16.632812 -22.882812 16.054688 -22.191406 15.515625 -21.453125 Z M 15.515625 -21.453125 "/></g></g></g></svg>