<svg xmlns="http://www.w3.org/2000/svg" xmlns:xlink="http://www.w3.org/1999/xlink" width="1024" zoomAndPan="magnify" viewBox="0 0 768 767.999994" height="1024" preserveAspectRatio="xMidYMid meet" version="1.2"><defs><clipPath id="80536dee03"><path d="M 0 3.75 L 768 3.75 L 768 768 L 0 768 Z M 0 3.75 "/></clipPath></defs><g id="a7ba206df3"><rect x="0" width="768" y="0" height="767.999994" style="fill:#ffffff;fill-opacity:1;stroke:none;"/><rect x="0" width="768" y="0" height="767.999994" style="fill:#ffffff;fill-opacity:1;stroke:none;"/><g clip-rule="nonzero" clip-path="url(#80536dee03)"><path style=" stroke:none;fill-rule:nonzero;fill:#435ebe;fill-opacity:1;" d="M 633.328125 387.480469 L 689.808594 395.320312 C 667.964844 552.683594 572.964844 692.121094 447.816406 750.597656 C 427.609375 760.039062 405.945312 764.78125 384.277344 764.78125 C 362.613281 764.78125 340.910156 760.039062 320.707031 750.597656 C 195.558594 692.15625 100.589844 552.683594 78.746094 395.320312 L 135.226562 387.480469 C 154.183594 524.066406 238.460938 649.214844 344.867188 698.925781 C 348.429688 700.601562 352.101562 701.992188 355.769531 703.203125 L 355.769531 542.847656 L 412.785156 542.847656 L 412.785156 703.203125 C 416.492188 702.027344 420.125 700.601562 423.691406 698.925781 C 530.128906 649.214844 614.371094 524.03125 633.363281 387.480469 Z M 131.273438 331.570312 C 131.273438 184.898438 247.121094 60.960938 384.277344 60.960938 C 521.4375 60.960938 637.285156 184.898438 637.285156 331.570312 C 637.285156 332.140625 637.285156 332.746094 637.285156 333.316406 L 694.300781 335.453125 C 696.367188 156.175781 553.542969 3.945312 384.277344 3.945312 C 215.011719 3.945312 72.191406 156.175781 74.257812 335.453125 L 131.273438 333.316406 C 131.273438 332.746094 131.273438 332.140625 131.273438 331.570312 Z M 520.261719 572.386719 C 543.636719 541.351562 562.984375 505.503906 576.953125 467.050781 C 576.953125 467.050781 576.953125 467.015625 576.953125 466.980469 L 576.953125 330 C 576.953125 222.777344 489.398438 136.007812 381.855469 137.289062 C 275.839844 138.570312 191.53125 227.015625 191.53125 333.03125 L 191.53125 466.980469 C 191.53125 466.980469 191.53125 467.015625 191.53125 467.050781 C 205.5 505.503906 224.847656 541.351562 248.226562 572.386719 C 248.332031 572.53125 248.546875 572.460938 248.546875 572.28125 L 248.546875 332.710938 C 248.546875 258.519531 306.988281 196.015625 381.140625 194.339844 C 457.363281 192.628906 519.9375 254.136719 519.9375 330 L 519.9375 572.28125 C 519.9375 572.28125 520.152344 572.53125 520.261719 572.386719 Z M 412.785156 492.710938 L 412.785156 397.742188 L 464.597656 397.742188 L 464.597656 340.726562 L 412.785156 340.726562 L 412.785156 282.25 L 355.769531 282.25 L 355.769531 340.726562 L 301 340.726562 L 301 397.742188 L 355.769531 397.742188 L 355.769531 492.710938 Z M 1.492188 856.003906 C 4.484375 852.867188 7.976562 850.445312 12.003906 848.699219 C 16.03125 846.953125 20.375 846.0625 25.007812 846.0625 C 27.929688 846.0625 30.851562 846.527344 33.738281 847.488281 C 36.625 848.449219 39.476562 849.839844 42.257812 851.691406 C 45.035156 853.546875 47.816406 855.828125 50.558594 858.570312 L 60.785156 847.914062 C 58.398438 844.601562 55.371094 841.644531 51.628906 839.042969 C 47.886719 836.441406 43.71875 834.410156 39.121094 832.914062 C 34.523438 831.417969 29.820312 830.703125 24.972656 830.703125 C 18.132812 830.703125 11.789062 831.988281 5.910156 834.550781 C 0.03125 837.117188 -5.136719 840.71875 -9.59375 845.351562 C -14.046875 849.980469 -17.539062 855.363281 -20.03125 861.492188 C -22.5625 867.621094 -23.808594 874.214844 -23.808594 881.339844 C -23.808594 888.824219 -22.632812 895.703125 -20.316406 901.972656 C -18 908.246094 -14.6875 913.660156 -10.445312 918.257812 C -6.171875 922.855469 -1.148438 926.382812 4.625 928.839844 C 10.398438 931.300781 16.742188 932.546875 23.691406 932.546875 C 28.324219 932.546875 32.957031 931.941406 37.550781 930.765625 C 42.148438 929.589844 46.320312 927.949219 50.058594 925.847656 C 53.800781 923.78125 56.757812 921.429688 58.933594 918.898438 L 51.273438 906.390625 C 49.097656 908.566406 46.675781 910.453125 44.039062 912.09375 C 41.367188 913.695312 38.550781 914.945312 35.523438 915.800781 C 32.492188 916.65625 29.429688 917.082031 26.292969 917.082031 C 21.160156 917.082031 16.492188 916.261719 12.289062 914.585938 C 8.082031 912.914062 4.449219 910.523438 1.417969 907.425781 C -1.609375 904.289062 -3.960938 900.511719 -5.636719 896.128906 C -7.277344 891.710938 -8.132812 886.828125 -8.132812 881.410156 C -8.132812 876.28125 -7.277344 871.578125 -5.566406 867.265625 C -3.855469 862.953125 -1.503906 859.246094 1.453125 856.109375 Z M 127.03125 865.089844 C 123.929688 861.882812 120.332031 859.320312 116.164062 857.5 C 111.992188 855.648438 107.503906 854.722656 102.65625 854.722656 C 97.167969 854.722656 92.074219 855.683594 87.371094 857.644531 C 82.667969 859.605469 78.640625 862.347656 75.289062 865.875 C 71.941406 869.402344 69.304688 873.609375 67.414062 878.453125 C 65.527344 883.300781 64.5625 888.644531 64.5625 894.527344 C 64.5625 901.902344 66.238281 908.457031 69.625 914.125 C 72.972656 919.828125 77.640625 924.28125 83.558594 927.558594 C 89.472656 930.835938 96.277344 932.476562 103.941406 932.476562 C 107.433594 932.476562 111.03125 931.976562 114.667969 930.980469 C 118.300781 929.980469 121.757812 928.628906 125.035156 926.917969 C 128.3125 925.207031 131.09375 923.210938 133.339844 920.929688 L 125.925781 910.5625 C 122.21875 913.769531 118.800781 916.011719 115.628906 917.261719 C 112.457031 918.507812 109 919.113281 105.328125 919.113281 C 100.128906 919.113281 95.53125 918.078125 91.539062 915.976562 C 87.546875 913.875 84.484375 910.917969 82.308594 907.105469 C 80.671875 904.21875 79.636719 900.902344 79.246094 897.234375 L 136.332031 897.234375 L 136.472656 890.960938 C 136.582031 885.757812 135.796875 880.949219 134.121094 876.53125 C 132.484375 872.109375 130.097656 868.296875 127.03125 865.089844 Z M 89.722656 871.148438 C 93.214844 869.226562 97.527344 868.226562 102.65625 868.226562 C 105.863281 868.226562 108.859375 868.941406 111.601562 870.367188 C 114.34375 871.789062 116.625 873.714844 118.445312 876.210938 C 120.261719 878.703125 121.292969 881.484375 121.578125 884.582031 L 121.578125 885.582031 L 79.851562 885.582031 C 80.3125 883.441406 80.921875 881.449219 81.773438 879.664062 C 83.558594 875.925781 86.230469 873.074219 89.722656 871.148438 Z M 253.855469 868.941406 C 255.707031 873.574219 256.632812 879.382812 256.632812 886.292969 L 256.632812 931.085938 L 241.847656 931.085938 L 241.847656 887.148438 C 241.847656 882.875 241.3125 879.417969 240.207031 876.707031 C 239.101562 874 237.464844 872.003906 235.289062 870.652344 C 233.117188 869.332031 230.300781 868.65625 226.914062 868.65625 C 224.242188 868.65625 221.785156 869.117188 219.46875 870.007812 C 217.152344 870.898438 215.121094 872.148438 213.410156 873.785156 C 211.699219 875.390625 210.378906 877.277344 209.417969 879.417969 C 208.457031 881.554688 207.992188 883.90625 207.992188 886.4375 L 207.992188 931.085938 L 193.203125 931.085938 L 193.203125 886.863281 C 193.203125 882.980469 192.632812 879.703125 191.496094 876.992188 C 190.355469 874.285156 188.714844 872.21875 186.503906 870.792969 C 184.332031 869.367188 181.660156 868.65625 178.558594 868.65625 C 175.886719 868.65625 173.425781 869.117188 171.148438 870.007812 C 168.867188 870.898438 166.871094 872.148438 165.195312 873.714844 C 163.484375 875.28125 162.167969 877.136719 161.203125 879.273438 C 160.242188 881.414062 159.78125 883.691406 159.78125 886.152344 L 159.78125 931.085938 L 144.992188 931.085938 L 144.992188 856.433594 L 159.78125 856.433594 L 159.78125 868.441406 C 160.101562 867.941406 160.351562 867.441406 160.707031 866.945312 C 162.34375 864.664062 164.410156 862.667969 166.800781 860.886719 C 169.222656 859.140625 171.824219 857.75 174.605469 856.679688 C 177.382812 855.613281 180.269531 855.113281 183.191406 855.113281 C 187.46875 855.113281 191.210938 855.828125 194.417969 857.25 C 197.625 858.675781 200.296875 860.816406 202.363281 863.667969 C 203.859375 865.695312 205.035156 868.085938 205.925781 870.828125 C 206.960938 868.832031 208.277344 866.945312 209.953125 865.164062 C 211.804688 863.238281 213.910156 861.492188 216.296875 859.960938 C 218.648438 858.464844 221.179688 857.25 223.816406 856.398438 C 226.453125 855.542969 229.089844 855.113281 231.617188 855.113281 C 237.214844 855.113281 241.847656 856.253906 245.480469 858.535156 C 249.117188 860.816406 251.859375 864.273438 253.710938 868.90625 Z M 327.046875 865.089844 C 323.949219 861.882812 320.347656 859.320312 316.179688 857.5 C 312.011719 855.648438 307.519531 854.722656 302.675781 854.722656 C 297.1875 854.722656 292.089844 855.683594 287.386719 857.644531 C 282.683594 859.605469 278.65625 862.347656 275.308594 865.875 C 271.957031 869.402344 269.320312 873.609375 267.433594 878.453125 C 265.542969 883.300781 264.582031 888.644531 264.582031 894.527344 C 264.582031 901.902344 266.257812 908.457031 269.640625 914.125 C 272.992188 919.828125 277.660156 924.28125 283.574219 927.558594 C 289.488281 930.835938 296.296875 932.476562 303.957031 932.476562 C 307.449219 932.476562 311.046875 931.976562 314.683594 930.980469 C 318.316406 929.980469 321.773438 928.628906 325.054688 926.917969 C 328.332031 925.207031 331.109375 923.210938 333.355469 920.929688 L 325.945312 910.5625 C 322.238281 913.769531 318.816406 916.011719 315.644531 917.261719 C 312.472656 918.507812 309.019531 919.113281 305.347656 919.113281 C 300.144531 919.113281 295.546875 918.078125 291.554688 915.976562 C 287.566406 913.875 284.5 910.917969 282.328125 907.105469 C 280.6875 904.21875 279.65625 900.902344 279.261719 897.234375 L 336.347656 897.234375 L 336.492188 890.960938 C 336.597656 885.757812 335.816406 880.949219 334.140625 876.53125 C 332.5 872.109375 330.113281 868.296875 327.046875 865.089844 Z M 289.738281 871.148438 C 293.230469 869.226562 297.542969 868.226562 302.675781 868.226562 C 305.882812 868.226562 308.875 868.941406 311.617188 870.367188 C 314.363281 871.789062 316.644531 873.714844 318.460938 876.210938 C 320.277344 878.703125 321.3125 881.484375 321.597656 884.582031 L 321.597656 885.582031 L 279.867188 885.582031 C 280.332031 883.441406 280.9375 881.449219 281.792969 879.664062 C 283.574219 875.925781 286.246094 873.074219 289.738281 871.148438 Z M 369.203125 856.433594 L 386.558594 856.433594 L 386.558594 870.652344 L 369.203125 870.652344 L 369.203125 931.085938 L 354.558594 931.085938 L 354.558594 870.652344 L 339.058594 870.652344 L 339.058594 856.433594 L 354.558594 856.433594 L 354.558594 837.367188 L 369.203125 837.367188 Z M 450.023438 865.089844 C 446.960938 861.882812 443.324219 859.320312 439.15625 857.5 C 434.984375 855.648438 430.496094 854.722656 425.648438 854.722656 C 420.160156 854.722656 415.066406 855.683594 410.363281 857.644531 C 405.660156 859.605469 401.632812 862.347656 398.28125 865.875 C 394.898438 869.4375 392.296875 873.609375 390.40625 878.453125 C 388.519531 883.300781 387.554688 888.644531 387.554688 894.527344 C 387.554688 901.902344 389.230469 908.457031 392.617188 914.125 C 395.964844 919.828125 400.632812 924.28125 406.550781 927.558594 C 412.464844 930.835938 419.269531 932.476562 426.933594 932.476562 C 430.425781 932.476562 434.023438 931.976562 437.660156 930.980469 C 441.292969 929.980469 444.785156 928.628906 448.027344 926.917969 C 451.308594 925.207031 454.085938 923.210938 456.332031 920.929688 L 448.953125 910.5625 C 445.25 913.769531 441.828125 916.011719 438.65625 917.261719 C 435.484375 918.507812 432.027344 919.113281 428.359375 919.113281 C 423.15625 919.113281 418.558594 918.078125 414.566406 915.976562 C 410.578125 913.875 407.511719 910.917969 405.339844 907.105469 C 403.699219 904.21875 402.664062 900.902344 402.273438 897.234375 L 459.359375 897.234375 L 459.503906 890.960938 C 459.609375 885.757812 458.824219 880.949219 457.152344 876.53125 C 455.476562 872.109375 453.125 868.296875 450.023438 865.089844 Z M 412.714844 871.148438 C 416.207031 869.226562 420.519531 868.226562 425.648438 868.226562 C 428.855469 868.226562 431.851562 868.941406 434.59375 870.367188 C 437.339844 871.789062 439.617188 873.714844 441.398438 876.210938 C 443.21875 878.667969 444.25 881.484375 444.535156 884.582031 L 444.535156 885.582031 L 402.808594 885.582031 C 403.269531 883.441406 403.878906 881.449219 404.730469 879.664062 C 406.515625 875.925781 409.1875 873.074219 412.679688 871.148438 Z M 506.328125 871.007812 C 504.9375 870.6875 503.582031 870.507812 502.265625 870.507812 C 499.699219 870.507812 497.277344 871.007812 494.960938 872.003906 C 492.644531 873.003906 490.613281 874.390625 488.867188 876.136719 C 487.121094 877.882812 485.730469 879.914062 484.660156 882.265625 C 483.628906 884.582031 483.09375 887.113281 483.09375 889.859375 L 483.09375 931.085938 L 468.304688 931.085938 L 468.304688 856.433594 L 483.09375 856.433594 L 483.09375 870.507812 C 484.089844 868.335938 485.375 866.304688 487.011719 864.378906 C 489.507812 861.457031 492.429688 859.105469 495.671875 857.394531 C 498.949219 855.683594 502.335938 854.828125 505.828125 854.828125 C 507.429688 854.828125 508.964844 854.972656 510.460938 855.257812 C 511.921875 855.542969 513.097656 855.863281 513.953125 856.253906 L 510.105469 872.183594 C 508.964844 871.71875 507.714844 871.292969 506.328125 870.972656 Z M 588.25 840.359375 C 587.359375 839.007812 584.757812 838.117188 580.410156 837.757812 C 579.414062 837.757812 578.34375 837.757812 577.238281 837.652344 C 576.097656 837.582031 574.996094 837.546875 573.890625 837.546875 C 572.644531 837.546875 571.253906 837.546875 569.757812 837.652344 C 568.261719 837.722656 566.761719 837.796875 565.265625 837.9375 L 562.09375 843.175781 L 558.53125 849.339844 C 555.789062 853.9375 552.972656 858.925781 550.121094 864.199219 C 547.269531 869.472656 544.5625 875.035156 542.066406 880.734375 L 541.5 882.054688 C 544.347656 882.195312 547.734375 882.375 551.582031 882.625 C 555.429688 882.875 559.207031 883.265625 562.914062 883.835938 C 566.585938 884.40625 569.648438 885.1875 572.074219 886.1875 C 574.496094 887.183594 575.707031 888.503906 575.707031 890.105469 C 575.707031 890.996094 575.566406 891.960938 575.316406 893.101562 C 575.066406 894.203125 574.636719 894.453125 573.996094 893.847656 C 573.355469 893.242188 571.574219 892.78125 568.582031 892.53125 C 565.585938 892.28125 562.273438 892.171875 558.675781 892.171875 C 555.074219 892.171875 551.691406 892.246094 548.199219 892.351562 C 544.707031 892.496094 541.890625 892.601562 539.789062 892.707031 L 536.4375 892.886719 C 534.191406 897.625 532.160156 902.042969 530.34375 906.179688 C 528.527344 910.277344 527.136719 913.910156 526.140625 917.011719 C 529.238281 916.621094 532.980469 916.296875 537.363281 915.976562 C 541.710938 915.65625 545.953125 915.515625 550.085938 915.515625 L 553.933594 915.515625 C 555.109375 915.515625 556.285156 915.585938 557.390625 915.691406 C 560.382812 915.941406 563.234375 916.371094 565.980469 917.011719 C 568.722656 917.652344 570.898438 918.578125 572.535156 919.828125 C 574.175781 921.074219 574.78125 922.75 574.425781 924.886719 L 573.855469 927.878906 C 573.710938 928.484375 573.640625 929.019531 573.570312 929.484375 C 573.5 929.910156 573.460938 930.265625 573.460938 930.515625 C 573.460938 931.160156 573.320312 931.515625 573.105469 931.65625 C 572.855469 931.800781 572.605469 931.585938 572.359375 931.085938 C 571.964844 930.339844 570.898438 929.804688 569.078125 929.484375 C 567.261719 929.164062 565.125 929.019531 562.628906 929.019531 C 560.632812 929.019531 558.53125 929.089844 556.359375 929.199219 C 554.183594 929.339844 552.402344 929.449219 551.011719 929.554688 C 548.269531 929.804688 545.167969 930.195312 541.675781 930.695312 C 538.183594 931.195312 534.90625 931.691406 531.839844 932.191406 C 528.777344 932.691406 526.496094 933.082031 525 933.296875 C 524.359375 933.4375 523.753906 933.511719 523.109375 933.582031 C 522.503906 933.652344 521.863281 933.6875 521.257812 933.6875 C 517.015625 933.6875 513.488281 932.296875 510.710938 929.484375 C 507.929688 926.667969 506.503906 923.210938 506.503906 919.113281 C 506.503906 917.367188 506.753906 915.726562 507.253906 914.265625 C 507.859375 911.773438 508.785156 908.851562 509.960938 905.464844 C 511.136719 902.082031 512.421875 898.625 513.808594 894.988281 C 511.816406 895.132812 510.210938 895.34375 508.964844 895.628906 C 507.714844 895.949219 506.71875 896.09375 505.96875 896.09375 L 505.792969 896.09375 C 505.1875 896.09375 504.867188 895.59375 504.867188 894.597656 C 504.722656 894.597656 504.6875 894.417969 504.6875 894.027344 C 504.6875 893.171875 505.042969 892.101562 505.792969 890.855469 C 507.039062 888.609375 508.570312 886.792969 510.390625 885.4375 C 512.207031 884.085938 514.914062 883.371094 518.515625 883.371094 L 518.691406 883.371094 C 521.042969 878.027344 523.539062 872.503906 526.070312 866.835938 C 528.632812 861.171875 531.023438 855.96875 533.265625 851.230469 C 535.511719 846.488281 537.257812 842.925781 538.503906 840.574219 C 535.652344 840.964844 533.160156 841.359375 531.023438 841.785156 C 528.882812 842.214844 527.351562 842.429688 526.351562 842.429688 L 526.175781 842.429688 C 525.425781 842.429688 525.070312 841.820312 525.070312 840.539062 L 525.070312 839.789062 C 525.070312 836.441406 526.210938 833.734375 528.527344 831.738281 C 530.84375 829.742188 533.695312 828.175781 537.113281 826.960938 C 540.535156 825.785156 544.0625 824.929688 547.699219 824.433594 C 551.296875 823.933594 554.433594 823.503906 557.035156 823.113281 C 558.140625 823.007812 559.386719 822.898438 560.667969 822.828125 C 561.988281 822.757812 563.269531 822.722656 564.519531 822.722656 C 568.367188 822.722656 572.285156 823.078125 576.207031 823.753906 C 580.125 824.433594 583.40625 825.609375 586.042969 827.210938 C 588.644531 828.851562 589.960938 831.203125 589.960938 834.339844 C 589.960938 835.085938 589.890625 835.976562 589.785156 836.941406 C 589.535156 837.9375 589.460938 838.792969 589.605469 839.542969 C 589.710938 840.183594 589.605469 840.539062 589.214844 840.683594 C 588.855469 840.824219 588.535156 840.683594 588.285156 840.289062 Z M 790.976562 892.457031 C 790.371094 891.640625 789.65625 891.246094 788.910156 891.246094 C 788.160156 891.246094 787.484375 891.746094 786.84375 892.742188 C 786.34375 893.636719 785.667969 895.023438 784.777344 896.949219 C 783.886719 898.871094 782.851562 900.976562 781.605469 903.21875 C 779.503906 907.210938 776.972656 911.203125 774.050781 915.195312 C 771.128906 919.183594 767.707031 922.5 763.859375 925.101562 C 760.011719 927.703125 755.519531 929.019531 750.386719 929.019531 C 747.644531 929.019531 745.328125 928.128906 743.476562 926.3125 C 741.621094 924.496094 740.660156 921.535156 740.660156 917.4375 L 740.660156 915.65625 C 740.660156 915.085938 740.730469 914.515625 740.839844 913.875 C 741.195312 910.632812 742.335938 906.464844 744.1875 901.332031 C 752.527344 900.726562 760.082031 898.230469 766.816406 893.847656 C 773.550781 889.5 778.648438 883.941406 782.140625 877.207031 C 784.742188 872.324219 786.058594 868.296875 786.058594 865.054688 C 786.058594 860.707031 784.097656 857.535156 780.179688 855.613281 C 776.257812 853.6875 771.164062 852.726562 764.925781 852.726562 C 760.082031 852.726562 755.449219 854.082031 751.101562 856.753906 C 746.753906 859.425781 742.761719 862.988281 739.128906 867.40625 C 735.492188 871.828125 732.320312 876.636719 729.578125 881.804688 C 727.046875 886.578125 725.015625 891.28125 723.449219 895.914062 C 722.523438 897.734375 721.453125 899.800781 720.171875 902.1875 C 717.855469 906.5 715.324219 910.5625 712.582031 914.445312 C 711.332031 916.191406 709.480469 918.1875 707.058594 920.433594 C 704.632812 922.675781 701.996094 924.566406 699.21875 926.132812 C 696.402344 927.703125 693.765625 928.484375 691.269531 928.484375 C 693.765625 927.488281 696.117188 925.636719 698.363281 922.890625 C 700.605469 920.148438 702.53125 917.046875 704.171875 913.554688 C 705.773438 910.0625 706.984375 906.820312 707.734375 903.828125 C 709.335938 897.980469 710.585938 890.675781 711.367188 881.945312 C 712.1875 873.214844 712.722656 864.484375 712.972656 855.753906 C 713.222656 853.261719 714.078125 851.65625 715.574219 850.980469 C 717.070312 850.304688 718.066406 849.945312 718.566406 849.945312 C 719.316406 849.945312 719.636719 849.625 719.492188 849.019531 C 719.351562 848.414062 719.171875 848.023438 718.921875 847.878906 C 718.175781 847.773438 717.035156 847.628906 715.539062 847.523438 C 714.042969 847.417969 712.617188 847.34375 711.226562 847.34375 L 709.621094 847.34375 C 709.050781 847.34375 708.519531 847.417969 708.019531 847.523438 C 703.886719 847.878906 700.109375 849.625 696.617188 852.65625 C 693.125 855.683594 690.023438 859.210938 687.351562 863.132812 C 684.679688 867.050781 682.328125 870.652344 680.332031 873.894531 C 678.585938 876.886719 676.839844 879.808594 675.09375 882.695312 C 673.488281 885.367188 671.992188 888.003906 670.601562 890.675781 C 670.496094 890.675781 670.351562 890.570312 670.246094 890.570312 C 669.996094 890.570312 669.78125 890.640625 669.605469 890.785156 C 669 890.320312 668.285156 890 667.253906 890 C 665.007812 890 663.191406 891.070312 661.835938 893.171875 C 660.480469 895.273438 659.449219 897.839844 658.84375 900.832031 C 658.238281 903.828125 657.917969 906.710938 657.917969 909.421875 C 657.917969 910.242188 657.953125 911.023438 658.023438 911.808594 C 657.273438 913.164062 656.5625 914.375 656.0625 915.230469 C 653.925781 918.222656 651.859375 920.789062 649.792969 922.890625 C 647.726562 924.992188 645.695312 926.0625 643.699219 926.0625 C 642.699219 926.0625 641.953125 925.386719 641.453125 923.996094 C 641.203125 923.140625 641.097656 922.390625 641.097656 921.75 C 641.097656 920.503906 641.273438 918.9375 641.667969 917.082031 C 642.023438 914.230469 642.773438 911.097656 643.914062 907.746094 C 645.015625 904.359375 646.191406 901.191406 647.367188 898.195312 C 648.542969 895.203125 649.507812 892.78125 650.253906 890.890625 C 651.503906 887.898438 652.964844 884.546875 654.636719 880.804688 C 656.3125 877.066406 658.058594 873.464844 659.875 870.042969 C 661.695312 866.625 663.441406 863.667969 665.113281 861.171875 C 666.789062 858.675781 668.320312 857.179688 669.710938 856.683594 C 671.207031 855.933594 671.957031 855.328125 671.957031 854.828125 C 671.957031 854.222656 670.960938 853.902344 668.964844 853.902344 L 668.035156 853.902344 C 666.289062 853.902344 664.507812 853.972656 662.691406 854.082031 C 660.875 854.222656 659.058594 854.257812 657.167969 854.257812 C 653.070312 854.257812 649.042969 854.152344 645.125 853.902344 C 641.203125 853.652344 637.78125 853.511719 634.933594 853.511719 C 626.84375 853.511719 619.429688 855.683594 612.769531 860.066406 C 606.105469 864.449219 600.1875 871.363281 595.09375 880.84375 C 593.703125 883.335938 591.957031 886.863281 589.855469 891.390625 C 587.753906 895.953125 585.828125 900.726562 584.152344 905.785156 C 582.476562 910.847656 581.621094 915.371094 581.621094 919.363281 C 581.621094 924.707031 583.191406 928.699219 586.289062 931.335938 C 589.390625 933.9375 594.378906 935.007812 601.257812 934.507812 C 604.25 934.257812 606.960938 932.796875 609.382812 930.125 C 611.804688 927.453125 614.050781 924.351562 616.117188 920.859375 C 618.183594 917.367188 620 914.195312 621.640625 911.308594 C 621.496094 912.308594 621.355469 913.339844 621.175781 914.410156 C 621 915.480469 620.890625 916.511719 620.890625 917.511719 C 620.890625 922.355469 622.246094 926.453125 624.917969 929.769531 C 627.589844 933.082031 631.617188 934.722656 636.964844 934.722656 C 644.195312 934.722656 650.539062 931.160156 656.027344 924.066406 C 657.203125 922.535156 658.308594 920.824219 659.449219 919.148438 C 660.695312 922.675781 662.65625 925.707031 665.398438 928.164062 C 670.390625 932.65625 676.695312 934.898438 684.285156 934.898438 C 690.273438 934.898438 695.511719 933.796875 700 931.550781 C 704.492188 929.304688 708.480469 926.277344 711.972656 922.464844 C 714.933594 919.222656 717.535156 915.691406 719.921875 911.914062 C 719.886719 912.59375 719.8125 913.304688 719.8125 913.945312 C 719.8125 920.683594 721.84375 926.097656 725.90625 930.230469 C 729.96875 934.328125 736.527344 936.398438 745.648438 936.398438 C 751.886719 936.398438 757.265625 935.257812 761.828125 932.941406 C 766.386719 930.625 770.628906 927.097656 774.621094 922.355469 C 778.21875 918.257812 781.460938 913.519531 784.347656 908.136719 C 787.199219 902.792969 789.445312 898.480469 791.082031 895.238281 C 791.582031 894.242188 791.511719 893.351562 790.90625 892.53125 Z M 748.144531 892.351562 C 749.035156 890.355469 750.316406 887.433594 752.0625 883.550781 C 753.808594 879.703125 755.804688 875.710938 758.050781 871.683594 C 760.296875 867.621094 762.398438 864.414062 764.394531 862.0625 C 765.746094 860.316406 767.066406 859.460938 768.3125 859.460938 C 769.808594 859.460938 770.558594 860.707031 770.558594 863.203125 C 770.558594 863.703125 770.558594 864.199219 770.449219 864.699219 C 770.378906 865.199219 770.308594 865.769531 770.164062 866.375 C 768.667969 872.964844 765.78125 879.023438 761.472656 884.511719 C 757.160156 890 752.207031 893.8125 746.613281 895.914062 L 748.109375 892.351562 Z M 640.0625 859.605469 C 639.066406 861.992188 637.710938 865.199219 636.035156 869.332031 C 634.363281 873.464844 632.542969 877.8125 630.621094 882.410156 C 628.695312 887.007812 626.949219 891.210938 625.382812 894.953125 C 623.8125 898.695312 622.746094 901.296875 622.105469 902.792969 C 620.714844 905.785156 618.96875 908.992188 616.867188 912.414062 C 614.726562 915.835938 612.589844 918.792969 610.414062 921.289062 C 608.242188 923.78125 606.460938 925.027344 605.070312 925.027344 C 603.679688 925.027344 603.003906 924.03125 603.003906 922.035156 C 603.003906 920.148438 603.574219 917.472656 604.679688 913.980469 C 605.78125 910.488281 607.28125 906.640625 609.167969 902.402344 C 611.019531 898.160156 613.089844 893.742188 615.332031 889.109375 C 617.578125 884.511719 619.859375 880.199219 622.175781 876.210938 C 624.492188 872.21875 626.628906 868.726562 628.625 865.734375 C 630.621094 862.738281 632.296875 860.742188 633.683594 859.746094 C 635.929688 858 637.675781 857.109375 638.921875 857.109375 C 639.777344 857.109375 640.242188 857.535156 640.242188 858.425781 C 640.242188 858.925781 640.171875 859.320312 640.0625 859.566406 Z M 684.75 903.398438 C 683.253906 908.742188 681.578125 913.484375 679.6875 917.617188 C 678.796875 919.46875 677.695312 920.859375 676.304688 921.714844 C 674.949219 922.605469 673.558594 923.035156 672.207031 923.035156 C 670.566406 923.035156 669 922.425781 667.429688 921.25 C 665.863281 920.074219 664.792969 918.472656 664.152344 916.476562 C 664.011719 915.871094 663.9375 915.15625 663.867188 914.410156 C 663.796875 913.660156 663.761719 913.054688 663.761719 912.558594 L 663.761719 912.023438 C 664.1875 911.238281 664.652344 910.5625 665.078125 909.742188 L 666.328125 907.355469 C 667.429688 906.070312 668.644531 904.789062 669.960938 903.578125 C 672.3125 901.332031 673.453125 898.765625 673.347656 895.914062 C 674.59375 893.421875 676.445312 890.105469 678.871094 886.007812 C 681.292969 881.910156 683.859375 877.777344 686.53125 873.679688 C 689.203125 869.546875 691.484375 866.375 693.375 864.128906 C 692.980469 865.980469 692.410156 869.011719 691.589844 873.179688 C 690.773438 877.351562 689.808594 882.089844 688.703125 887.398438 C 687.601562 892.707031 686.28125 898.019531 684.785156 903.398438 Z M 684.75 903.398438 "/></g></g></svg>